<svg width="1366" height="435" viewBox="0 0 1366 435" fill="none" xmlns="http://www.w3.org/2000/svg">
<g opacity="0.2">
<path d="M88.7 218.76V158.73" stroke="#D1D3D4" stroke-miterlimit="10"/>
<path d="M88.7 218.76V158.73" stroke="#939598" stroke-miterlimit="10"/>
<path d="M972.58 428.89L920.59 458.91L868.6 428.89" stroke="#D1D3D4" stroke-miterlimit="10"/>
<path d="M972.58 428.89L920.59 398.87L868.6 428.89" stroke="#D1D3D4" stroke-miterlimit="10"/>
<path d="M816.6 458.91L868.6 428.89" stroke="#D1D3D4" stroke-miterlimit="10"/>
<path d="M868.6 428.89L816.6 398.87" stroke="#D1D3D4" stroke-miterlimit="10"/>
<path d="M816.6 398.87L764.61 428.89" stroke="#D1D3D4" stroke-miterlimit="10"/>
<path d="M816.6 398.87V338.84L764.61 368.85" stroke="#D1D3D4" stroke-miterlimit="10"/>
<path d="M816.6 458.91L764.61 428.89" stroke="#D1D3D4" stroke-miterlimit="10"/>
<path d="M972.58 428.89L1024.58 458.91" stroke="#D1D3D4" stroke-miterlimit="10"/>
<path d="M1024.58 338.84L972.58 368.85V428.89" stroke="#D1D3D4" stroke-miterlimit="10"/>
<path d="M972.58 368.85L1024.58 398.87" stroke="#D1D3D4" stroke-miterlimit="10"/>
<path d="M1024.58 398.87L1076.57 368.85V428.89L1024.58 458.91" stroke="#D1D3D4" stroke-miterlimit="10"/>
<path d="M1024.58 398.87V458.91" stroke="#D1D3D4" stroke-miterlimit="10"/>
<path d="M920.59 398.87V338.84L868.6 368.85V428.89" stroke="#D1D3D4" stroke-miterlimit="10"/>
<path d="M712.62 338.84L660.62 308.82" stroke="#D1D3D4" stroke-miterlimit="10"/>
<path d="M660.62 308.82L608.63 338.84" stroke="#D1D3D4" stroke-miterlimit="10"/>
<path d="M764.61 367.85V427.89" stroke="#D1D3D4" stroke-miterlimit="10"/>
<path d="M764.61 368.85L712.62 338.84" stroke="#D1D3D4" stroke-miterlimit="10"/>
<path d="M660.62 428.89L712.62 458.91" stroke="#D1D3D4" stroke-miterlimit="10"/>
<path d="M660.62 368.85V428.89" stroke="#D1D3D4" stroke-miterlimit="10"/>
<path d="M712.62 338.84L660.62 368.85" stroke="#D1D3D4" stroke-miterlimit="10"/>
<path d="M764.61 428.89L712.62 398.87" stroke="#D1D3D4" stroke-miterlimit="10"/>
<path d="M712.62 398.87L660.62 428.89" stroke="#D1D3D4" stroke-miterlimit="10"/>
<path d="M712.62 398.87V338.84" stroke="#D1D3D4" stroke-miterlimit="10"/>
<path d="M660.62 368.85L608.63 338.84" stroke="#D1D3D4" stroke-miterlimit="10"/>
<path d="M608.63 458.91L660.62 428.89" stroke="#D1D3D4" stroke-miterlimit="10"/>
<path d="M660.62 428.89L608.63 398.87" stroke="#D1D3D4" stroke-miterlimit="10"/>
<path d="M764.61 428.89L712.62 458.91" stroke="#D1D3D4" stroke-miterlimit="10"/>
<path d="M764.61 488.93V428.89" stroke="#D1D3D4" stroke-miterlimit="10"/>
<path d="M608.63 398.87V338.84" stroke="#D1D3D4" stroke-miterlimit="10"/>
<path d="M452.65 428.89L504.64 458.91" stroke="#D1D3D4" stroke-miterlimit="10"/>
<path d="M556.64 428.89L504.64 398.87" stroke="#D1D3D4" stroke-miterlimit="10"/>
<path d="M504.64 398.87L452.65 428.89" stroke="#D1D3D4" stroke-miterlimit="10"/>
<path d="M504.64 398.87V338.84L556.64 308.82" stroke="#D1D3D4" stroke-miterlimit="10"/>
<path d="M556.64 428.89L504.64 458.91" stroke="#D1D3D4" stroke-miterlimit="10"/>
<path d="M556.64 488.93V428.89" stroke="#D1D3D4" stroke-miterlimit="10"/>
<path d="M556.64 368.85V428.89" stroke="#D1D3D4" stroke-miterlimit="10"/>
<path d="M608.63 338.84L556.64 368.85" stroke="#D1D3D4" stroke-miterlimit="10"/>
<path d="M608.63 398.87L556.64 428.89" stroke="#D1D3D4" stroke-miterlimit="10"/>
<path d="M556.64 368.85L504.64 338.84" stroke="#D1D3D4" stroke-miterlimit="10"/>
<path d="M452.65 428.89V368.85" stroke="#D1D3D4" stroke-miterlimit="10"/>
<path d="M452.65 368.85L400.66 338.84" stroke="#D1D3D4" stroke-miterlimit="10"/>
<path d="M348.66 428.89L400.66 458.91" stroke="#D1D3D4" stroke-miterlimit="10"/>
<path d="M400.66 458.91L452.65 428.89" stroke="#D1D3D4" stroke-miterlimit="10"/>
<path d="M452.65 428.89L400.66 398.87" stroke="#D1D3D4" stroke-miterlimit="10"/>
<path d="M400.66 398.87L348.66 428.89" stroke="#D1D3D4" stroke-miterlimit="10"/>
<path d="M400.66 398.87V338.84" stroke="#D1D3D4" stroke-miterlimit="10"/>
<path d="M348.66 428.89V368.85" stroke="#D1D3D4" stroke-miterlimit="10"/>
<path d="M244.68 428.89L296.67 458.91" stroke="#D1D3D4" stroke-miterlimit="10"/>
<path d="M296.67 458.91L348.66 428.89" stroke="#D1D3D4" stroke-miterlimit="10"/>
<path d="M348.66 428.89L296.67 398.87" stroke="#D1D3D4" stroke-miterlimit="10"/>
<path d="M296.67 398.87L244.68 428.89" stroke="#D1D3D4" stroke-miterlimit="10"/>
<path d="M296.67 398.87V338.84" stroke="#D1D3D4" stroke-miterlimit="10"/>
<path d="M400.66 338.84V278.8" stroke="#D1D3D4" stroke-miterlimit="10"/>
<path d="M296.67 338.84L348.66 368.85" stroke="#D1D3D4" stroke-miterlimit="10"/>
<path d="M348.66 368.85L400.66 338.84" stroke="#D1D3D4" stroke-miterlimit="10"/>
<path d="M400.66 338.84L348.66 308.82" stroke="#D1D3D4" stroke-miterlimit="10"/>
<path d="M348.66 308.82L296.67 338.84" stroke="#D1D3D4" stroke-miterlimit="10"/>
<path d="M244.68 428.89V368.85" stroke="#D1D3D4" stroke-miterlimit="10"/>
<path d="M140.69 428.89L192.69 458.91" stroke="#D1D3D4" stroke-miterlimit="10"/>
<path d="M192.69 458.91L244.68 428.89" stroke="#D1D3D4" stroke-miterlimit="10"/>
<path d="M244.68 428.89L192.69 398.87" stroke="#D1D3D4" stroke-miterlimit="10"/>
<path d="M192.69 398.87V338.84" stroke="#D1D3D4" stroke-miterlimit="10"/>
<path d="M192.69 338.84L244.68 368.85" stroke="#D1D3D4" stroke-miterlimit="10"/>
<path d="M244.68 368.85L296.67 338.84" stroke="#D1D3D4" stroke-miterlimit="10"/>
<path d="M296.67 338.84L244.68 308.82" stroke="#D1D3D4" stroke-miterlimit="10"/>
<path d="M244.68 308.82L192.69 338.84" stroke="#D1D3D4" stroke-miterlimit="10"/>
<path d="M244.68 308.82V248.78" stroke="#D1D3D4" stroke-miterlimit="10"/>
<path d="M140.69 428.89V368.85" stroke="#D1D3D4" stroke-miterlimit="10"/>
<path d="M36.71 428.89L88.7 458.91" stroke="#D1D3D4" stroke-miterlimit="10"/>
<path d="M88.7 458.91L140.69 428.89" stroke="#D1D3D4" stroke-miterlimit="10"/>
<path d="M140.69 428.89L88.7 398.87" stroke="#D1D3D4" stroke-miterlimit="10"/>
<path d="M88.7 398.87L36.71 428.89" stroke="#D1D3D4" stroke-miterlimit="10"/>
<path d="M36.71 428.89V368.85" stroke="#D1D3D4" stroke-miterlimit="10"/>
<path d="M-15.29 458.91L36.71 428.89" stroke="#D1D3D4" stroke-miterlimit="10"/>
<path d="M36.71 428.89L-15.29 398.87" stroke="#D1D3D4" stroke-miterlimit="10"/>
<path d="M192.69 338.84V278.8" stroke="#D1D3D4" stroke-miterlimit="10"/>
<path d="M88.7 338.84L140.69 368.85" stroke="#D1D3D4" stroke-miterlimit="10"/>
<path d="M140.69 368.85L192.69 338.84" stroke="#D1D3D4" stroke-miterlimit="10"/>
<path d="M192.69 338.84L140.69 308.82" stroke="#D1D3D4" stroke-miterlimit="10"/>
<path d="M140.69 308.82L88.7 338.84" stroke="#D1D3D4" stroke-miterlimit="10"/>
<path d="M140.69 308.82V248.78" stroke="#D1D3D4" stroke-miterlimit="10"/>
<path d="M-15.29 338.84L36.71 368.85" stroke="#D1D3D4" stroke-miterlimit="10"/>
<path d="M36.71 368.85L88.7 338.84" stroke="#D1D3D4" stroke-miterlimit="10"/>
<path d="M88.7 338.84L36.71 308.82" stroke="#D1D3D4" stroke-miterlimit="10"/>
<path d="M36.71 308.82L-15.29 338.84" stroke="#D1D3D4" stroke-miterlimit="10"/>
<path d="M36.71 308.82V248.78" stroke="#D1D3D4" stroke-miterlimit="10"/>
<path d="M140.69 188.74L88.7 158.73" stroke="#D1D3D4" stroke-miterlimit="10"/>
<path d="M36.71 248.78L88.7 278.8" stroke="#D1D3D4" stroke-miterlimit="10"/>
<path d="M88.7 278.8L140.69 248.78" stroke="#D1D3D4" stroke-miterlimit="10"/>
<path d="M36.71 188.74V248.78" stroke="#D1D3D4" stroke-miterlimit="10"/>
<path d="M140.69 248.78L88.7 218.76" stroke="#D1D3D4" stroke-miterlimit="10"/>
<path d="M88.7 218.76L36.71 248.78" stroke="#D1D3D4" stroke-miterlimit="10"/>
<path d="M140.69 248.78L192.69 278.8" stroke="#D1D3D4" stroke-miterlimit="10"/>
<path d="M192.69 278.8L244.68 248.78" stroke="#D1D3D4" stroke-miterlimit="10"/>
<path d="M140.69 188.74V248.78" stroke="#D1D3D4" stroke-miterlimit="10"/>
<path d="M244.68 248.78L192.69 218.76" stroke="#D1D3D4" stroke-miterlimit="10"/>
<path d="M192.69 218.76L140.69 248.78" stroke="#D1D3D4" stroke-miterlimit="10"/>
<path d="M192.69 218.76V158.73L140.69 188.74" stroke="#D1D3D4" stroke-miterlimit="10"/>
<path d="M244.68 248.78L296.67 218.76" stroke="#D1D3D4" stroke-miterlimit="10"/>
<path d="M140.69 128.71V188.74" stroke="#D1D3D4" stroke-miterlimit="10"/>
<path d="M348.66 308.82V248.78L296.67 278.8V338.84V278.8" stroke="#D1D3D4" stroke-miterlimit="10"/>
<path d="M504.64 518.95V458.91L556.64 428.89" stroke="#939598" stroke-miterlimit="10"/>
<path d="M556.64 488.93V428.89" stroke="#939598" stroke-miterlimit="10"/>
<path d="M660.62 368.85L712.62 338.84" stroke="#939598" stroke-miterlimit="10"/>
<path d="M712.62 338.84L660.62 308.82L608.63 338.84" stroke="#939598" stroke-miterlimit="10"/>
<path d="M972.58 428.89L920.59 458.91L868.6 428.89" stroke="#939598" stroke-miterlimit="10"/>
<path d="M868.6 368.85V428.89" stroke="#939598" stroke-miterlimit="10"/>
<path d="M868.6 428.89L920.59 398.87L972.58 428.89" stroke="#939598" stroke-miterlimit="10"/>
<path d="M816.6 458.91L868.6 428.89" stroke="#939598" stroke-miterlimit="10"/>
<path d="M764.61 368.85V428.89" stroke="#939598" stroke-miterlimit="10"/>
<path d="M816.6 338.84L764.61 368.85" stroke="#939598" stroke-miterlimit="10"/>
<path d="M868.6 428.89L816.6 398.87" stroke="#939598" stroke-miterlimit="10"/>
<path d="M816.6 398.87L764.61 428.89" stroke="#939598" stroke-miterlimit="10"/>
<path d="M816.6 398.87V338.84" stroke="#939598" stroke-miterlimit="10"/>
<path d="M764.61 368.85L712.62 338.84" stroke="#939598" stroke-miterlimit="10"/>
<path d="M660.62 428.89L712.62 458.91" stroke="#939598" stroke-miterlimit="10"/>
<path d="M660.62 368.85V428.89" stroke="#939598" stroke-miterlimit="10"/>
<path d="M764.61 428.89L712.62 398.87" stroke="#939598" stroke-miterlimit="10"/>
<path d="M712.62 398.87L660.62 428.89" stroke="#939598" stroke-miterlimit="10"/>
<path d="M712.62 398.87V338.84" stroke="#939598" stroke-miterlimit="10"/>
<path d="M660.62 368.85L608.63 338.84" stroke="#939598" stroke-miterlimit="10"/>
<path d="M660.62 428.89L608.63 458.91V518.95V458.91" stroke="#939598" stroke-miterlimit="10"/>
<path d="M660.62 428.89L608.63 398.87" stroke="#939598" stroke-miterlimit="10"/>
<path d="M608.63 398.87L556.64 428.89" stroke="#939598" stroke-miterlimit="10"/>
<path d="M608.63 398.87V338.84" stroke="#939598" stroke-miterlimit="10"/>
<path d="M816.6 458.91L764.61 428.89" stroke="#939598" stroke-miterlimit="10"/>
<path d="M764.61 428.89L712.62 458.91" stroke="#939598" stroke-miterlimit="10"/>
<path d="M764.61 488.93V428.89" stroke="#939598" stroke-miterlimit="10"/>
<path d="M972.58 368.85V428.89" stroke="#939598" stroke-miterlimit="10"/>
<path d="M972.58 428.89L1024.58 458.91L1076.57 428.89" stroke="#939598" stroke-miterlimit="10"/>
<path d="M1024.58 398.87V458.91" stroke="#939598" stroke-miterlimit="10"/>
<path d="M348.66 368.85L400.66 338.84L452.65 368.85" stroke="#939598" stroke-miterlimit="10"/>
<path d="M400.66 398.87L348.66 428.89" stroke="#939598" stroke-miterlimit="10"/>
<path d="M348.66 428.89V368.85" stroke="#939598" stroke-miterlimit="10"/>
<path d="M244.68 428.89L296.67 458.91" stroke="#939598" stroke-miterlimit="10"/>
<path d="M296.67 458.91L348.66 428.89" stroke="#939598" stroke-miterlimit="10"/>
<path d="M348.66 428.89L296.67 398.87" stroke="#939598" stroke-miterlimit="10"/>
<path d="M296.67 398.87L244.68 428.89" stroke="#939598" stroke-miterlimit="10"/>
<path d="M296.67 398.87V338.84" stroke="#939598" stroke-miterlimit="10"/>
<path d="M296.67 338.84L348.66 368.85" stroke="#939598" stroke-miterlimit="10"/>
<path d="M348.66 308.82L296.67 338.84" stroke="#939598" stroke-miterlimit="10"/>
<path d="M192.69 338.84L244.68 368.85V428.89" stroke="#939598" stroke-miterlimit="10"/>
<path d="M140.69 428.89L192.69 458.91" stroke="#939598" stroke-miterlimit="10"/>
<path d="M244.68 428.89L192.69 398.87" stroke="#939598" stroke-miterlimit="10"/>
<path d="M192.69 398.87V338.84" stroke="#939598" stroke-miterlimit="10"/>
<path d="M296.67 338.84V278.8" stroke="#939598" stroke-miterlimit="10"/>
<path d="M296.67 338.84L244.68 308.82" stroke="#939598" stroke-miterlimit="10"/>
<path d="M244.68 308.82L192.69 338.84" stroke="#939598" stroke-miterlimit="10"/>
<path d="M36.71 428.89L88.7 458.91" stroke="#939598" stroke-miterlimit="10"/>
<path d="M88.7 458.91L140.69 428.89" stroke="#939598" stroke-miterlimit="10"/>
<path d="M140.69 428.89L88.7 398.87" stroke="#939598" stroke-miterlimit="10"/>
<path d="M88.7 398.87L36.71 428.89" stroke="#939598" stroke-miterlimit="10"/>
<path d="M36.71 428.89V368.85" stroke="#939598" stroke-miterlimit="10"/>
<path d="M-15.29 458.91L36.71 428.89" stroke="#939598" stroke-miterlimit="10"/>
<path d="M36.71 428.89L-15.29 398.87" stroke="#939598" stroke-miterlimit="10"/>
<path d="M140.69 368.85L192.69 338.84L140.69 368.85ZM140.69 368.85V428.89V368.85Z" stroke="#939598" stroke-miterlimit="10"/>
<path d="M192.69 338.84L140.69 308.82" stroke="#939598" stroke-miterlimit="10"/>
<path d="M140.69 308.82L88.7 338.84" stroke="#939598" stroke-miterlimit="10"/>
<path d="M140.69 308.82V248.78" stroke="#939598" stroke-miterlimit="10"/>
<path d="M-15.29 338.84L36.71 368.85" stroke="#939598" stroke-miterlimit="10"/>
<path d="M36.71 368.85L88.7 338.84" stroke="#939598" stroke-miterlimit="10"/>
<path d="M36.71 248.78L-15.29 278.8" stroke="#939598" stroke-miterlimit="10"/>
<path d="M88.7 338.84L36.71 308.82" stroke="#939598" stroke-miterlimit="10"/>
<path d="M36.71 308.82L-15.29 338.84" stroke="#939598" stroke-miterlimit="10"/>
<path d="M36.71 308.82V248.78" stroke="#939598" stroke-miterlimit="10"/>
<path d="M36.71 248.78L88.7 278.8" stroke="#939598" stroke-miterlimit="10"/>
<path d="M88.7 278.8L140.69 248.78" stroke="#939598" stroke-miterlimit="10"/>
<path d="M36.71 188.74V248.78" stroke="#939598" stroke-miterlimit="10"/>
<path d="M88.7 158.73L36.71 188.74" stroke="#939598" stroke-miterlimit="10"/>
<path d="M140.69 248.78L88.7 218.76" stroke="#939598" stroke-miterlimit="10"/>
<path d="M88.7 218.76L36.71 248.78" stroke="#939598" stroke-miterlimit="10"/>
<path d="M192.69 278.8L140.69 248.78L192.69 278.8ZM192.69 278.8L244.68 248.78V308.82V248.78" stroke="#939598" stroke-miterlimit="10"/>
<path d="M140.69 188.74L192.69 158.73V218.76L140.69 248.78" stroke="#939598" stroke-miterlimit="10"/>
<path d="M556.64 428.89L504.64 398.87" stroke="#939598" stroke-miterlimit="10"/>
<path d="M504.64 398.87L452.65 428.89L400.66 398.87L452.65 428.89" stroke="#939598" stroke-miterlimit="10"/>
<path d="M556.64 428.89V368.85V428.89ZM556.64 428.89V368.85L504.64 338.84V398.87" stroke="#939598" stroke-miterlimit="10"/>
<path d="M400.66 398.87V338.84" stroke="#939598" stroke-miterlimit="10"/>
</g>
</svg>
