<svg width="59" height="80" viewBox="0 0 59 80" fill="none" xmlns="http://www.w3.org/2000/svg">
<path fill-rule="evenodd" clip-rule="evenodd" d="M32.1792 1.53076C31.1727 0.769332 30.1524 0 29.2794 0C28.4063 0 27.3859 0.769316 26.3795 1.53076C25.3993 2.38746 24.2523 3.0313 23.0099 3.42083C21.7052 3.62449 20.3727 3.545 19.1023 3.18826C17.925 2.94978 16.7542 2.71721 16.0716 3.04767C15.389 3.37812 14.8752 4.45098 14.3549 5.51983H14.3542C13.876 6.7267 13.1362 7.81204 12.1875 8.69888C11.114 9.4347 9.88941 9.92151 8.60312 10.1245C7.45605 10.3959 6.3089 10.6679 5.84639 11.2447C5.38388 11.8208 5.36154 13.0021 5.34249 14.1814C5.42067 15.4861 5.20978 16.7921 4.72493 18.0063C4.06927 19.1257 3.17775 20.0902 2.11283 20.8313C1.17073 21.5953 0.229321 22.3647 0.0407844 23.1425C-0.147752 23.9203 0.350886 25.0431 0.848867 26.1777V26.1784C1.47825 27.3721 1.85273 28.6835 1.94931 30.0295C1.85404 31.3743 1.48155 32.6843 0.854788 33.8781C0.356806 35.0081 -0.135928 36.1387 0.0467049 36.9133C0.229338 37.6886 1.17671 38.4599 2.11875 39.2246C3.18371 39.9656 4.07526 40.9301 4.73018 42.0502C5.21502 43.2637 5.42591 44.5697 5.34839 45.8738C5.36744 47.0537 5.38584 48.2284 5.85229 48.8105C6.31874 49.3925 7.46188 49.658 8.60903 49.9313C9.89472 50.1336 11.1194 50.6205 12.1934 51.3563C13.1414 52.2432 13.8811 53.3286 14.3595 54.5353C14.8811 55.6042 15.4041 56.677 16.0775 57.0075C16.7509 57.338 17.9302 57.1014 19.1082 56.8669H19.1088C20.3788 56.5101 21.7112 56.4313 23.0153 56.6343C24.2576 57.0239 25.4054 57.6677 26.3856 58.5257C27.3927 59.2859 28.4124 60.0552 29.2854 60.0552C30.1585 60.0552 31.1789 59.2859 32.1853 58.5257C33.1648 57.6677 34.3125 57.0239 35.5549 56.6343C36.859 56.4313 38.1914 56.5101 39.4619 56.8669C40.6398 57.1054 41.8106 57.3379 42.4937 57.0075C43.1763 56.677 43.6901 55.6042 44.2104 54.5353C44.6887 53.3284 45.4285 52.2431 46.3765 51.3563C47.4506 50.6205 48.6752 50.1336 49.9609 49.9313C51.1079 49.6593 52.2551 49.3866 52.7176 48.8105C53.1801 48.2343 53.2024 47.0531 53.2215 45.8738H53.2221C53.144 44.5697 53.3549 43.2635 53.8397 42.0502C54.4954 40.9308 55.3869 39.9663 56.4511 39.2246C57.3932 38.4605 58.3346 37.6912 58.5232 36.914C58.7117 36.1375 58.2019 35.0081 57.7039 33.8781C57.0745 32.6844 56.7001 31.3725 56.6041 30.027C56.7001 28.6802 57.0745 27.3681 57.7039 26.1738C58.2019 25.0438 58.6946 23.9133 58.512 23.1386C58.3294 22.3634 57.382 21.5914 56.44 20.8274V20.8267C55.375 20.085 54.4841 19.1212 53.8285 18.001C53.3437 16.7876 53.1321 15.4821 53.2103 14.1775C53.1913 12.9982 53.1729 11.8229 52.7064 11.2408C52.24 10.6587 51.0968 10.3933 49.9497 10.12C48.664 9.91766 47.4393 9.43083 46.3653 8.69501C45.4173 7.80876 44.6776 6.7227 44.1992 5.51664C43.6776 4.44773 43.1547 3.37496 42.4812 3.04448C41.8078 2.71402 40.6285 2.95053 39.4505 3.18507L39.4499 3.18441C38.1799 3.54181 36.8469 3.62131 35.5434 3.41698C34.3011 3.02805 33.1533 2.38422 32.1731 1.52691L32.1792 1.53076ZM50.7335 52.4608L57.8913 75.8722L50.2513 71.8121V71.8114C49.9419 71.6459 49.5785 71.6104 49.2422 71.7129C48.9065 71.816 48.6253 72.0486 48.4617 72.36L44.4081 80L38.0683 59.2795C38.3508 59.3294 38.6465 59.3886 38.9388 59.4484C40.5543 59.7749 42.1606 60.1001 43.648 59.3708C45.1505 58.6331 45.8699 57.1582 46.5867 55.6872C46.9165 54.8437 47.4034 54.0711 48.0222 53.4102C48.804 52.9477 49.6673 52.6389 50.5647 52.5009L50.7362 52.4602L50.7335 52.4608ZM7.82088 52.4608L7.99234 52.5015V52.5009C8.89042 52.6388 9.75375 52.9469 10.5355 53.4101C11.1563 54.0704 11.6451 54.8436 11.9756 55.6872C12.693 57.1581 13.4117 58.6331 14.9143 59.3708C16.3997 60.1 18.0067 59.7748 19.6235 59.4483C19.9152 59.3892 20.2082 59.3294 20.4946 59.2795L14.1542 80L10.094 72.3599C9.92978 72.0485 9.64926 71.816 9.31289 71.7128C8.97717 71.6103 8.61387 71.6458 8.30443 71.8114L0.664419 75.8715L7.82274 52.4601L7.82088 52.4608ZM41.0056 18.2989C44.6505 21.9445 46.3928 27.078 45.7194 32.1894C45.046 37.3007 42.0337 41.8081 37.5689 44.3855C33.1041 46.9628 27.6946 47.3177 22.9315 45.344C18.1692 43.3712 14.5946 39.2952 13.2602 34.3154C11.9265 29.3356 12.9842 24.0186 16.1227 19.929C19.261 15.8387 24.1233 13.4407 29.2787 13.4407C33.6784 13.4354 37.8989 15.1836 41.0058 18.2991L41.0056 18.2989ZM29.2785 10.7922C35.2584 10.7922 40.8985 13.5732 44.5387 18.3172C48.1789 23.0612 49.4062 29.2283 47.8583 35.0044C46.3112 40.7806 42.1649 45.5082 36.6405 47.7965C31.1153 50.0853 24.8413 49.6741 19.6622 46.6842C14.4832 43.6944 10.9902 38.4655 10.2096 32.5369C9.42907 26.6084 11.4506 20.6536 15.679 16.4259C19.2819 12.8133 24.1763 10.7858 29.2784 10.7924L29.2785 10.7922ZM21.8383 31.6187C21.2779 31.1529 21.2017 30.3212 21.6675 29.7614C22.1333 29.2017 22.965 29.1248 23.5248 29.5906L28.14 33.4358L35.9572 23.7547V23.7554C36.4145 23.1864 37.2456 23.0964 37.8145 23.5537C38.3828 24.011 38.4728 24.8427 38.0162 25.411L29.3605 36.1367L29.3461 36.1538C28.8803 36.7129 28.0499 36.7891 27.4901 36.3239L21.8383 31.6187Z" fill="#FCDB5C"/>
</svg>
