<svg width="42" height="43" viewBox="0 0 42 43" fill="none" xmlns="http://www.w3.org/2000/svg">
<path d="M36.7746 36.179H5.25834C5.10385 36.179 4.94934 36.0261 4.94934 35.8731V1.07425C4.94934 0.921291 5.10385 0.768311 5.25834 0.768311H36.7746C36.9291 0.768311 37.0836 0.921291 37.0836 1.07425V35.7966C37.0836 36.0261 36.9291 36.179 36.7746 36.179ZM5.64457 35.4907H36.4579V1.45666H5.64457V35.4907Z" fill="#383736"/>
<path d="M39.5791 40.6914H2.44704C2.29255 40.6914 2.13806 40.5384 2.13806 40.3855V35.8731C2.13806 35.7201 2.29255 35.5671 2.44704 35.5671H39.5791C39.7336 35.5671 39.8881 35.7201 39.8881 35.8731V40.3855C39.8958 40.5384 39.7336 40.6914 39.5791 40.6914ZM2.841 40.0031H39.2701V36.179H2.841V40.0031Z" fill="#383736"/>
<path d="M21.5621 36.1789H8.70013C8.57827 36.1789 8.45642 36.026 8.45642 35.873V4.3628C8.45642 4.20984 8.57827 4.05688 8.70013 4.05688H21.5621C21.684 4.05688 21.8058 4.20984 21.8058 4.3628V35.873C21.8667 36.026 21.7449 36.1789 21.5621 36.1789ZM9.01087 35.4906H21.3184V4.66872H9.01087V35.4906Z" fill="#383736"/>
<path d="M34.0455 36.1789H21.1835C21.0617 36.1789 20.9398 36.026 20.9398 35.873V4.3628C20.9398 4.20984 21.0617 4.05688 21.1835 4.05688H34.0455C34.1674 4.05688 34.2892 4.20984 34.2892 4.3628V35.873C34.3501 36.026 34.2283 36.1789 34.0455 36.1789ZM21.4943 35.4906H33.8018V4.66872H21.4943V35.4906Z" fill="#383736"/>
<path d="M29.7498 10.7028C29.6726 10.7028 29.5953 10.7028 29.5953 10.6263C29.4408 10.5498 29.3636 10.3204 29.4408 10.1674L31.2329 7.18468C31.3102 7.03172 31.5419 6.95523 31.7041 7.03171C31.8586 7.10819 31.9359 7.33764 31.8586 7.4906L30.0665 10.4734C30.0588 10.7028 29.9043 10.7028 29.7498 10.7028Z" fill="#383736"/>
<path d="M29.2791 13.9914C29.2019 13.9914 29.1246 13.9914 29.1246 13.9149C28.9701 13.8384 28.8929 13.609 28.9701 13.456L30.7622 10.4732C30.8395 10.3203 31.0712 10.2438 31.2334 10.3203C31.3879 10.3968 31.4652 10.6262 31.3879 10.7792L29.5958 13.7619C29.5186 13.9149 29.3563 13.9914 29.2791 13.9914Z" fill="#383736"/>
<path d="M16.7498 10.7028C16.6726 10.7028 16.5953 10.7028 16.5953 10.6263C16.4408 10.5498 16.3636 10.3204 16.4408 10.1674L18.2329 7.18468C18.3102 7.03172 18.5419 6.95523 18.7041 7.03171C18.8586 7.10819 18.9359 7.33764 18.8586 7.4906L17.0665 10.4734C17.0588 10.7028 16.9043 10.7028 16.7498 10.7028Z" fill="#383736"/>
<path d="M16.2791 13.9914C16.2019 13.9914 16.1246 13.9914 16.1246 13.9149C15.9701 13.8384 15.8929 13.609 15.9701 13.456L17.7622 10.4732C17.8395 10.3203 18.0712 10.2438 18.2334 10.3203C18.3879 10.3968 18.4652 10.6262 18.3879 10.7792L16.5958 13.7619C16.5186 13.9149 16.3563 13.9914 16.2791 13.9914Z" fill="#383736"/>
<path d="M41.6102 42.6798H0.422748C0.268256 42.6798 0.11377 42.5269 0.11377 42.3739V40.3854C0.11377 40.2324 0.268256 40.0795 0.422748 40.0795H41.6102C41.7647 40.0795 41.9192 40.2324 41.9192 40.3854V42.3739C41.9192 42.5269 41.7647 42.6798 41.6102 42.6798ZM0.808977 41.9915H41.3012V40.6913H0.808977V41.9915Z" fill="#383736"/>
<path d="M39.5786 38.9323H6.4247C6.27021 38.9323 6.11572 38.7793 6.11572 38.6264C6.11572 38.4734 6.27021 38.3204 6.4247 38.3204H39.5786C39.7331 38.3204 39.8876 38.4734 39.8876 38.6264C39.8953 38.7793 39.7331 38.9323 39.5786 38.9323Z" fill="#383736"/>
<circle cx="18.4397" cy="21.5017" r="1.25" stroke="#383736" stroke-width="0.5"/>
<circle cx="24.4397" cy="21.5017" r="1.25" stroke="#383736" stroke-width="0.5"/>
</svg>
