<svg width="43" height="8" viewBox="0 0 43 8" fill="none" xmlns="http://www.w3.org/2000/svg">
<path d="M40.4009 5.94138H3.26882C3.11433 5.94138 2.95984 5.78842 2.95984 5.63546V1.12308C2.95984 0.970119 3.11433 0.817139 3.26882 0.817139H40.4009C40.5554 0.817139 40.7099 0.970119 40.7099 1.12308V5.63546C40.7176 5.78842 40.5554 5.94138 40.4009 5.94138ZM3.66278 5.25305H40.0919V1.429H3.66278V5.25305Z" fill="#383736"/>
<path d="M42.432 7.92982H1.24453C1.09003 7.92982 0.935547 7.77686 0.935547 7.6239V5.63539C0.935547 5.48243 1.09003 5.32947 1.24453 5.32947H42.432C42.5865 5.32947 42.741 5.48243 42.741 5.63539V7.6239C42.741 7.77686 42.5865 7.92982 42.432 7.92982ZM1.63075 7.24149H42.123V5.94131H1.63075V7.24149Z" fill="#383736"/>
<path d="M40.4005 4.1823H7.2466C7.09211 4.1823 6.93762 4.02932 6.93762 3.87635C6.93762 3.72339 7.09211 3.57043 7.2466 3.57043H40.4005C40.555 3.57043 40.7095 3.72339 40.7095 3.87635C40.7172 4.02932 40.555 4.1823 40.4005 4.1823Z" fill="#383736"/>
</svg>
