<svg width="43" height="43" viewBox="0 0 43 43" fill="none" xmlns="http://www.w3.org/2000/svg">
<path d="M37.4363 35.9332H5.91996C5.76547 35.9332 5.61096 35.7802 5.61096 35.6273V0.828404C5.61096 0.675442 5.76547 0.522461 5.91996 0.522461H37.4363C37.5907 0.522461 37.7452 0.675442 37.7452 0.828404V35.5508C37.7452 35.7802 37.5907 35.9332 37.4363 35.9332ZM6.30619 35.2449H37.1195V1.21081H6.30619V35.2449Z" fill="#383736"/>
<path d="M40.2405 40.4455H3.10842C2.95393 40.4455 2.79944 40.2926 2.79944 40.1396V35.6272C2.79944 35.4743 2.95393 35.3213 3.10842 35.3213H40.2405C40.395 35.3213 40.5495 35.4743 40.5495 35.6272V40.1396C40.5572 40.2926 40.395 40.4455 40.2405 40.4455ZM3.50238 39.7572H39.9315V35.9332H3.50238V39.7572Z" fill="#383736"/>
<path d="M42.2715 42.434H1.084C0.929511 42.434 0.775024 42.281 0.775024 42.128V40.1395C0.775024 39.9866 0.929511 39.8336 1.084 39.8336H42.2715C42.426 39.8336 42.5805 39.9866 42.5805 40.1395V42.128C42.5805 42.281 42.426 42.434 42.2715 42.434ZM1.47023 41.7456H41.9625V40.4455H1.47023V41.7456Z" fill="#383736"/>
<path d="M40.24 38.6864H7.08608C6.93159 38.6864 6.7771 38.5335 6.7771 38.3805C6.7771 38.2275 6.93159 38.0746 7.08608 38.0746H40.24C40.3945 38.0746 40.549 38.2275 40.549 38.3805C40.5567 38.5335 40.3945 38.6864 40.24 38.6864Z" fill="#383736"/>
<rect x="9.25476" y="4.00586" width="24.5" height="2.5" stroke="#383736" stroke-width="0.5"/>
<rect x="9.25476" y="9.00586" width="24.5" height="2.5" stroke="#383736" stroke-width="0.5"/>
<rect x="9.25476" y="14.0059" width="24.5" height="2.5" stroke="#383736" stroke-width="0.5"/>
<rect x="9.25476" y="19.0059" width="24.5" height="2.5" stroke="#383736" stroke-width="0.5"/>
<rect x="9.25476" y="24.0059" width="24.5" height="2.5" stroke="#383736" stroke-width="0.5"/>
<rect x="9.25476" y="29.0059" width="24.5" height="2.5" stroke="#383736" stroke-width="0.5"/>
<rect x="9.25476" y="6.50586" width="24.5" height="2.5" stroke="#383736" stroke-width="0.5"/>
<rect x="9.25476" y="11.5059" width="24.5" height="2.5" stroke="#383736" stroke-width="0.5"/>
<rect x="9.25476" y="16.5059" width="24.5" height="2.5" stroke="#383736" stroke-width="0.5"/>
<rect x="9.25476" y="21.5059" width="24.5" height="2.5" stroke="#383736" stroke-width="0.5"/>
<rect x="9.25476" y="26.5059" width="24.5" height="2.5" stroke="#383736" stroke-width="0.5"/>
<rect x="9.25476" y="31.5059" width="24.5" height="2.5" stroke="#383736" stroke-width="0.5"/>
</svg>
