<svg width="42" height="44" viewBox="0 0 42 44" fill="none" xmlns="http://www.w3.org/2000/svg">
<rect x="5.07898" y="32.8549" width="27.6452" height="2.09677" stroke="#383736"/>
<rect x="3.53064" y="36.1775" width="30.7419" height="1.32258" stroke="#383736"/>
<path d="M18.9015 4.48387L1.09509 21.129V17.6452L18.9015 1L37.0951 17.2581V21.129L18.9015 4.48387Z" stroke="#383736"/>
<path d="M4.96606 17.2581V31.5807H32.837V17.2581L18.9015 4.48389L4.96606 17.2581Z" stroke="#383736"/>
<path d="M28.579 6.03223V8.35481L31.6758 11.0645V6.03223H28.579Z" stroke="#383736"/>
<path d="M0.0952148 42L2.59521 43.4434V40.5566L0.0952148 42ZM38.0952 42L35.5952 40.5566V43.4434L38.0952 42ZM2.34521 42.25H35.8452V41.75H2.34521V42.25Z" fill="#383736"/>
<path d="M40.0952 38L41.5386 35.5L38.6518 35.5L40.0952 38ZM40.0952 0.5L38.6518 3L41.5386 3L40.0952 0.5ZM40.3452 35.75L40.3452 2.75L39.8452 2.75L39.8452 35.75L40.3452 35.75Z" fill="#383736"/>
</svg>
