<svg width="42" height="42" viewBox="0 0 42 42" fill="none" xmlns="http://www.w3.org/2000/svg">
<path d="M36.8167 35.4249H5.30046C5.14597 35.4249 4.99146 35.2719 4.99146 35.119V0.320103C4.99146 0.167141 5.14597 0.0141602 5.30046 0.0141602H36.8167C36.9712 0.0141602 37.1257 0.167141 37.1257 0.320103V35.0425C37.1257 35.2719 36.9712 35.4249 36.8167 35.4249ZM5.68669 34.7366H36.5V0.702508H5.68669V34.7366Z" fill="#383736"/>
<path d="M39.62 39.9372H2.48793C2.33344 39.9372 2.17896 39.7843 2.17896 39.6313V35.1189C2.17896 34.966 2.33344 34.813 2.48793 34.813H39.62C39.7745 34.813 39.929 34.966 39.929 35.1189V39.6313C39.9367 39.7843 39.7745 39.9372 39.62 39.9372ZM2.88189 39.2489H39.311V35.4249H2.88189V39.2489Z" fill="#383736"/>
<path d="M38.9171 13.3983H36.8082C36.6538 13.3983 36.4993 13.2453 36.4993 13.0924V6.82096C36.4993 6.668 36.6538 6.51501 36.8082 6.51501H38.9171C39.0716 6.51501 39.226 6.668 39.226 6.82096V13.0924C39.311 13.2453 39.1565 13.3983 38.9171 13.3983ZM37.125 12.71H38.5308V7.12688H37.125V12.71Z" fill="#383736"/>
<path d="M38.9171 27.7767H36.8082C36.6538 27.7767 36.4993 27.6238 36.4993 27.4708V21.1994C36.4993 21.0464 36.6538 20.8934 36.8082 20.8934H38.9171C39.0716 20.8934 39.226 21.0464 39.226 21.1994V27.4708C39.311 27.6238 39.1565 27.7767 38.9171 27.7767ZM37.125 27.0884H38.5308V21.5053H37.125V27.0884Z" fill="#383736"/>
<path d="M33.302 35.4249H25.1139C24.9594 35.4249 24.8049 35.2719 24.8049 35.119V3.60878C24.8049 3.45581 24.9594 3.30286 25.1139 3.30286H33.302C33.4565 3.30286 33.611 3.45581 33.611 3.60878V35.119C33.6187 35.2719 33.4565 35.4249 33.302 35.4249ZM25.5001 34.7366H32.993V3.9147H25.5001V34.7366Z" fill="#383736"/>
<path d="M25.1136 35.4249H8.80703C8.65253 35.4249 8.49805 35.2719 8.49805 35.119V3.60878C8.49805 3.45581 8.65253 3.30286 8.80703 3.30286H25.1136C25.2681 3.30286 25.4226 3.45581 25.4226 3.60878V35.119C25.4999 35.2719 25.3454 35.4249 25.1136 35.4249ZM9.20099 34.7366H24.8047V3.9147H9.20099V34.7366Z" fill="#383736"/>
<path d="M33.302 28.0062H25.1139C24.9594 28.0062 24.8049 27.8533 24.8049 27.7003V3.60878C24.8049 3.45581 24.9594 3.30286 25.1139 3.30286H33.302C33.4565 3.30286 33.611 3.45581 33.611 3.60878V27.7003C33.6187 27.8533 33.4565 28.0062 33.302 28.0062ZM25.5001 27.3179H32.993V3.9147H25.5001V27.3179Z" fill="#383736"/>
<path d="M15.4343 15.7692C15.357 15.7692 15.2798 15.7692 15.2798 15.6927C15.1253 15.6162 15.048 15.3868 15.1253 15.2338L19.9609 6.97385C20.0381 6.82089 20.2699 6.74442 20.4321 6.8209C20.5866 6.89738 20.6638 7.12681 20.5866 7.27977L15.751 15.5397C15.6737 15.6927 15.5192 15.7692 15.4343 15.7692Z" fill="#383736"/>
<path d="M13.4108 19.1344C13.3336 19.1344 13.2563 19.1344 13.2563 19.0579C13.1018 18.9814 13.0246 18.752 13.1018 18.599L14.4305 16.3811C14.5077 16.2281 14.7395 16.1516 14.9017 16.2281C15.0562 16.3046 15.1334 16.5341 15.0562 16.687L13.7275 18.905C13.6426 19.0579 13.4881 19.1344 13.4108 19.1344Z" fill="#383736"/>
<path d="M16.3767 19.0579C16.2994 19.0579 16.2222 19.0579 16.2222 18.9814C16.0677 18.9049 15.9904 18.6755 16.0677 18.5225L19.1111 13.3983C19.1884 13.2453 19.4201 13.1689 19.5824 13.2453C19.7368 13.3218 19.8141 13.5513 19.7368 13.7042L16.6934 18.8284C16.6084 18.9814 16.4539 19.0579 16.3767 19.0579Z" fill="#383736"/>
<path d="M29.0915 20.2051C29.0142 20.2051 28.937 20.2051 28.937 20.1286C28.7825 20.0522 28.7053 19.8227 28.7825 19.6698L30.5746 16.687C30.6518 16.534 30.8836 16.4575 31.0458 16.534C31.2003 16.6105 31.2775 16.84 31.2003 16.9929L29.4082 19.9757C29.4005 20.2051 29.246 20.2051 29.0915 20.2051Z" fill="#383736"/>
<path d="M28.6208 23.4938C28.5435 23.4938 28.4663 23.4938 28.4663 23.4173C28.3118 23.3408 28.2346 23.1114 28.3118 22.9584L30.1039 19.9757C30.1812 19.8227 30.4129 19.7462 30.5751 19.8227C30.7296 19.8992 30.8068 20.1286 30.7296 20.2816L28.9375 23.2644C28.8602 23.4173 28.698 23.4938 28.6208 23.4938Z" fill="#383736"/>
<path d="M41.652 41.9257H0.464496C0.310005 41.9257 0.155518 41.7727 0.155518 41.6197V39.6312C0.155518 39.4783 0.310005 39.3253 0.464496 39.3253H41.652C41.8065 39.3253 41.961 39.4783 41.961 39.6312V41.6197C41.961 41.7727 41.8065 41.9257 41.652 41.9257ZM0.850725 41.2373H41.343V39.9372H0.850725V41.2373Z" fill="#383736"/>
<path d="M39.6204 38.1781H6.46645C6.31196 38.1781 6.15747 38.0252 6.15747 37.8722C6.15747 37.7192 6.31196 37.5663 6.46645 37.5663H39.6204C39.7749 37.5663 39.9293 37.7192 39.9293 37.8722C39.9371 38.0252 39.7749 38.1781 39.6204 38.1781Z" fill="#383736"/>
</svg>
