<svg width="75" height="80" viewBox="0 0 75 80" fill="none" xmlns="http://www.w3.org/2000/svg">
<path d="M33.0301 20.226C31.6864 20.2254 30.3833 19.7638 29.3395 18.917C28.2957 18.0708 27.5741 16.8912 27.296 15.5764C21.3433 17.7299 16.2591 21.7726 12.8196 27.0874C9.38013 32.4021 7.77478 38.6959 8.24823 45.009C8.72218 51.3217 11.2485 57.3056 15.4423 62.047C19.6362 66.7883 25.2668 70.0279 31.4747 71.2693C37.682 72.5106 44.1252 71.6862 49.8209 68.9224C55.5154 66.158 60.1492 61.6059 63.0142 55.9607C65.8791 50.3161 66.8183 43.8888 65.6875 37.6597C64.5561 31.4312 61.4184 25.7437 56.7517 21.4663C55.6797 20.4925 55.0111 19.1523 54.8764 17.7105C54.7417 16.2686 55.151 14.8284 56.0243 13.6724C52.2761 11.2527 48.0963 9.57957 43.7136 8.74634C43.579 9.73131 43.1944 10.6657 42.597 11.4607L37.702 17.908V17.9074C36.59 19.3646 34.8636 20.2213 33.0313 20.2254L33.0301 20.226ZM15.6338 45.0228C14.6694 44.9992 13.8991 44.2101 13.8991 43.2446C13.8991 42.2796 14.6695 41.4905 15.6338 41.4669H18.9774C19.9424 41.4904 20.7121 42.2795 20.7121 43.2446C20.7121 44.2102 19.9423 44.9993 18.9774 45.0228H15.6338ZM24.7655 57.9567L22.4016 60.3194C22.0687 60.6581 21.6148 60.8498 21.1402 60.8522C20.6657 60.854 20.2099 60.6664 19.8748 60.3306C19.539 59.9949 19.352 59.5391 19.3544 59.0646C19.3567 58.59 19.549 58.136 19.8883 57.8038L22.2528 55.4405H22.2522C22.9491 54.7578 24.0658 54.7637 24.7549 55.454C25.4441 56.1438 25.4494 57.2605 24.7655 57.9567ZM25.5129 31.4333C24.8178 32.1266 23.6929 32.126 22.9984 31.4321L20.6357 29.0676C20.297 28.7354 20.1053 28.2808 20.103 27.8063C20.1012 27.3317 20.2888 26.876 20.6245 26.5408C20.9603 26.2056 21.416 26.018 21.8906 26.0204C22.3651 26.0234 22.8191 26.2151 23.1514 26.5544L25.5147 28.9189L25.5141 28.9183C26.208 29.6133 26.2074 30.7389 25.5129 31.4333ZM38.9796 65.8721C38.9914 66.3507 38.8091 66.8141 38.4745 67.1569C38.1399 67.5003 37.6812 67.6932 37.202 67.6932C36.7227 67.6932 36.264 67.5004 35.9295 67.1569C35.5949 66.8141 35.4126 66.3507 35.4243 65.8721V62.5284C35.4126 62.0498 35.5949 61.5864 35.9295 61.2436C36.2641 60.9007 36.7227 60.7073 37.202 60.7073C37.6812 60.7073 38.1399 60.9007 38.4745 61.2436C38.8091 61.5864 38.9914 62.0498 38.9796 62.5284V65.8721ZM59.1879 41.4667C60.1529 41.4902 60.9226 42.2794 60.9226 43.2444C60.9226 44.21 60.1529 44.9991 59.1879 45.0226H55.8449C55.3657 45.0338 54.9023 44.8521 54.5595 44.5175C54.2166 44.1829 54.0232 43.7236 54.0232 43.2444C54.0232 42.7657 54.2166 42.3064 54.5595 41.9718C54.9023 41.6372 55.3657 41.455 55.8449 41.4667L59.1879 41.4667ZM49.6728 28.0182L52.0374 25.6555C52.3696 25.3168 52.8236 25.1251 53.2981 25.1227C53.7727 25.121 54.2284 25.3085 54.5642 25.6443C54.8994 25.9801 55.087 26.4358 55.084 26.9104C55.0816 27.3849 54.8894 27.8389 54.5506 28.1711L52.1861 30.5338C51.8539 30.8725 51.3999 31.0642 50.9254 31.0666C50.4508 31.0684 49.9951 30.8808 49.6593 30.545C49.3241 30.2092 49.1371 29.7535 49.1395 29.279C49.1418 28.8044 49.3341 28.3504 49.6728 28.0182ZM49.0683 54.9857C49.764 54.2936 50.8884 54.2936 51.584 54.9857L53.9485 57.3502C54.6271 58.0476 54.6195 59.1607 53.9314 59.8489C53.2434 60.5369 52.1303 60.5445 51.4328 59.8659L49.0683 57.5014C48.375 56.8063 48.375 55.6813 49.0683 54.9857ZM38.9792 26.9132V40.4083L43.0338 36.5184C43.3714 36.1773 43.8324 35.9874 44.3117 35.9909C44.7915 35.9944 45.249 36.1914 45.5812 36.5378C45.9135 36.8835 46.0917 37.3493 46.0758 37.8285C46.0593 38.3078 45.8506 38.76 45.496 39.0834L38.433 45.8623C37.9196 46.3563 37.1605 46.4956 36.5048 46.2157C35.8491 45.9364 35.4239 45.2925 35.4245 44.5798V26.9126C35.448 25.9476 36.2366 25.1779 37.2022 25.1779C38.1672 25.1779 38.9563 25.9477 38.9799 26.9126L38.9792 26.9132Z" fill="#FCDB5C"/>
<path d="M62.268 15.4479C61.6612 14.8911 60.8032 14.7005 60.0176 14.9481C59.232 15.1957 58.6386 15.8437 58.4598 16.6475C58.2817 17.4514 58.5457 18.2893 59.1525 18.8461C64.6136 23.854 68.2025 30.5758 69.3244 37.8998C70.4458 45.2238 69.034 52.7121 65.3222 59.1243C61.6099 65.5375 55.8201 70.4912 48.9105 73.1661C42.0005 75.8411 34.3841 76.0775 27.3217 73.8359C20.2594 71.5942 14.1731 67.0086 10.0715 60.8383C5.96933 54.6675 4.09588 47.2816 4.76156 39.9014C5.42723 32.522 8.59202 25.5903 13.7328 20.2531C18.8734 14.9161 25.6818 11.4942 33.0318 10.5527L31.1971 12.9696C30.699 13.6253 30.5884 14.4968 30.9072 15.2564C31.2259 16.0156 31.9256 16.5472 32.743 16.6507C33.5598 16.7542 34.3701 16.4137 34.8681 15.758L39.7647 9.30954C40.1063 8.85969 40.2704 8.29988 40.2269 7.73657C40.1828 7.17322 39.9335 6.64575 39.5265 6.25352L33.6885 0.643544C33.0946 0.0725503 32.2419 -0.137963 31.4504 0.0907806C30.6595 0.319524 30.0503 0.953443 29.8528 1.75258C29.6552 2.55231 29.8998 3.39676 30.4932 3.96715L32.5695 5.96239V5.96298C24.1653 7.0091 16.3701 10.8943 10.4765 16.9758C4.58258 23.0573 0.941955 30.9694 0.159304 39.403C-0.623964 47.8356 1.49709 56.283 6.17031 63.3462C10.8441 70.4092 17.7901 75.6633 25.8578 78.2396C33.9257 80.8152 42.6308 80.5582 50.5326 77.5104C58.434 74.4626 65.0577 68.8069 69.3063 61.4811C73.5549 54.1547 75.1732 45.5962 73.8936 37.2263C72.614 28.8544 68.5131 21.1698 62.2698 15.4479L62.268 15.4479Z" fill="#FCDB5C"/>
</svg>
