<svg width="217" height="63" viewBox="0 0 217 63" fill="none" xmlns="http://www.w3.org/2000/svg">
<path d="M112.664 50.2836V54.6199H112.212V50.677H109.467V54.6199H109.016V50.2836H112.664Z" fill="#2C2C32"/>
<path d="M117.671 50.6814C117.983 50.9452 118.14 51.3118 118.14 51.7722C118.14 52.2327 117.983 52.5993 117.671 52.8586C117.358 53.1223 116.924 53.2519 116.37 53.2519H115.203V54.6199H114.742V50.2836H116.365C116.919 50.2836 117.353 50.4177 117.671 50.6814ZM117.34 52.568C117.568 52.3802 117.679 52.1164 117.679 51.7722C117.679 51.4191 117.568 51.1508 117.34 50.9631C117.112 50.7753 116.785 50.6814 116.356 50.6814H115.203V52.8496H116.356C116.785 52.8496 117.112 52.7557 117.34 52.568Z" fill="#2C2C32"/>
<path d="M120.496 54.3696C120.147 54.1773 119.875 53.9136 119.678 53.5783C119.481 53.243 119.383 52.8675 119.383 52.4517C119.383 52.036 119.481 51.6605 119.678 51.3252C119.875 50.9899 120.147 50.7261 120.496 50.5339C120.845 50.3417 121.234 50.2478 121.663 50.2478C122.092 50.2478 122.481 50.3417 122.825 50.5339C123.169 50.7217 123.442 50.9854 123.639 51.3252C123.836 51.6605 123.934 52.0405 123.934 52.4562C123.934 52.872 123.836 53.2519 123.639 53.5872C123.442 53.9225 123.169 54.1863 122.825 54.3785C122.481 54.5707 122.092 54.6646 121.663 54.6646C121.234 54.6601 120.845 54.5618 120.496 54.3696ZM122.593 54.0164C122.87 53.8599 123.089 53.6454 123.245 53.3727C123.402 53.1 123.482 52.7915 123.482 52.4517C123.482 52.112 123.402 51.808 123.245 51.5308C123.089 51.2581 122.87 51.0436 122.593 50.8871C122.316 50.7306 122.007 50.6546 121.663 50.6546C121.319 50.6546 121.01 50.7306 120.729 50.8871C120.451 51.0436 120.232 51.2581 120.071 51.5308C119.911 51.8035 119.835 52.112 119.835 52.4517C119.835 52.7915 119.915 53.0955 120.071 53.3727C120.228 53.6498 120.451 53.8599 120.729 54.0164C121.006 54.1729 121.319 54.2489 121.663 54.2489C122.007 54.2489 122.32 54.1729 122.593 54.0164Z" fill="#2C2C32"/>
<path d="M125.654 50.2836H126.106V53.8778L128.882 50.2836H129.298V54.6199H128.846V51.0301L126.07 54.6199H125.654V50.2836Z" fill="#2C2C32"/>
<path d="M133.939 52.7378C134.104 52.9256 134.184 53.1491 134.184 53.4084C134.184 53.6588 134.104 53.8823 133.948 54.07C133.791 54.2578 133.581 54.4053 133.322 54.5081C133.062 54.611 132.776 54.6601 132.472 54.6601C132.182 54.6601 131.9 54.6154 131.618 54.5215C131.341 54.4277 131.091 54.2891 130.867 54.1013L131.037 53.7705C131.225 53.9314 131.444 54.0566 131.69 54.1416C131.936 54.2265 132.182 54.2667 132.428 54.2667C132.664 54.2667 132.879 54.231 133.08 54.155C133.277 54.079 133.438 53.9762 133.554 53.8376C133.67 53.699 133.728 53.5336 133.728 53.3458C133.728 53.0955 133.63 52.8988 133.429 52.7647C133.232 52.6261 132.951 52.559 132.593 52.559H131.663V52.188H132.566C132.87 52.188 133.112 52.1209 133.281 51.9913C133.451 51.8616 133.536 51.6783 133.536 51.4504C133.536 51.1955 133.429 50.9944 133.21 50.8469C132.991 50.6993 132.714 50.6278 132.387 50.6278C132.182 50.6278 131.972 50.6591 131.761 50.7172C131.551 50.7753 131.35 50.8647 131.162 50.9854L131.006 50.6054C131.435 50.3506 131.9 50.221 132.401 50.221C132.696 50.221 132.964 50.2702 133.205 50.364C133.447 50.4579 133.644 50.5965 133.782 50.7753C133.925 50.9541 133.997 51.1598 133.997 51.4012C133.997 51.6336 133.934 51.8303 133.804 52.0002C133.675 52.1656 133.496 52.2863 133.264 52.3579C133.55 52.4249 133.773 52.5501 133.939 52.7378Z" fill="#2C2C32"/>
<path d="M139.204 52.7468C139.361 52.9256 139.441 53.1625 139.441 53.4486C139.441 53.8242 139.307 54.1147 139.044 54.3159C138.775 54.5171 138.386 54.6199 137.868 54.6199H135.945V50.2836H137.747C138.212 50.2836 138.57 50.3774 138.833 50.5697C139.097 50.7619 139.222 51.0346 139.222 51.3922C139.222 51.6336 139.16 51.8393 139.035 52.0092C138.909 52.179 138.74 52.2997 138.516 52.3847C138.816 52.4473 139.044 52.568 139.204 52.7468ZM136.397 52.2461H137.725C138.06 52.2461 138.315 52.179 138.494 52.0405C138.672 51.9019 138.762 51.7052 138.762 51.4459C138.762 51.1866 138.672 50.9854 138.494 50.8513C138.315 50.7127 138.056 50.6457 137.725 50.6457H136.397V52.2461ZM138.985 53.4174C138.985 52.872 138.61 52.5993 137.863 52.5993H136.393V54.2533H137.863C138.61 54.2578 138.985 53.9762 138.985 53.4174Z" fill="#2C2C32"/>
<path d="M141.938 54.3696C141.589 54.1773 141.316 53.9136 141.119 53.5783C140.923 53.243 140.824 52.8675 140.824 52.4517C140.824 52.036 140.923 51.6605 141.119 51.3252C141.316 50.9899 141.589 50.7261 141.938 50.5339C142.286 50.3417 142.675 50.2478 143.104 50.2478C143.533 50.2478 143.922 50.3417 144.267 50.5339C144.611 50.7217 144.884 50.9854 145.08 51.3252C145.277 51.6605 145.38 52.0405 145.38 52.4562C145.38 52.872 145.281 53.2519 145.08 53.5872C144.884 53.9225 144.611 54.1863 144.267 54.3785C143.922 54.5707 143.533 54.6646 143.104 54.6646C142.675 54.6646 142.291 54.5618 141.938 54.3696ZM144.039 54.0164C144.316 53.8599 144.53 53.6454 144.691 53.3727C144.852 53.1 144.928 52.7915 144.928 52.4517C144.928 52.112 144.848 51.808 144.691 51.5308C144.535 51.2537 144.316 51.0436 144.039 50.8871C143.761 50.7306 143.453 50.6546 143.109 50.6546C142.765 50.6546 142.456 50.7306 142.174 50.8871C141.893 51.0436 141.678 51.2581 141.517 51.5308C141.356 51.8035 141.276 52.112 141.276 52.4517C141.276 52.7915 141.356 53.0955 141.517 53.3727C141.678 53.6454 141.897 53.8599 142.174 54.0164C142.452 54.1729 142.765 54.2489 143.109 54.2489C143.453 54.2489 143.761 54.1729 144.039 54.0164Z" fill="#2C2C32"/>
<path d="M150.958 54.2265V55.5944H150.529V54.6199H146.742L146.738 55.5944H146.309L146.313 54.2265H146.532C146.818 54.2086 147.015 53.9851 147.127 53.547C147.239 53.1133 147.306 52.492 147.332 51.6917L147.382 50.2836H150.305V54.2265H150.958ZM147.592 53.3682C147.511 53.7973 147.377 54.0834 147.185 54.2265H149.854V50.6814H147.78L147.744 51.7364C147.721 52.3936 147.672 52.939 147.592 53.3682Z" fill="#2C2C32"/>
<path d="M153.246 54.374C152.901 54.1863 152.629 53.9225 152.432 53.5828C152.235 53.2475 152.137 52.8675 152.137 52.4517C152.137 52.036 152.235 51.656 152.432 51.3207C152.629 50.9854 152.901 50.7217 153.246 50.5294C153.594 50.3372 153.979 50.2433 154.412 50.2433C154.734 50.2433 155.029 50.297 155.306 50.4043C155.579 50.5116 155.812 50.668 155.999 50.8737L155.709 51.1643C155.369 50.82 154.944 50.6502 154.426 50.6502C154.082 50.6502 153.773 50.7306 153.491 50.8871C153.21 51.0436 152.991 51.2581 152.83 51.5308C152.669 51.8035 152.593 52.1075 152.593 52.4473C152.593 52.787 152.673 53.091 152.83 53.3637C152.991 53.6364 153.21 53.851 153.491 54.0075C153.773 54.1639 154.086 54.2444 154.426 54.2444C154.944 54.2444 155.374 54.07 155.709 53.7258L155.999 54.0164C155.812 54.222 155.579 54.383 155.302 54.4903C155.025 54.5976 154.73 54.6557 154.408 54.6557C153.979 54.6601 153.59 54.5663 153.246 54.374Z" fill="#2C2C32"/>
<path d="M160.354 50.6814H158.83V54.6244H158.378V50.6814H156.854V50.2836H160.354V50.6814Z" fill="#2C2C32"/>
<path d="M165.036 52.7468C165.193 52.9256 165.273 53.1625 165.273 53.4486C165.273 53.8242 165.139 54.1147 164.876 54.3159C164.607 54.5171 164.218 54.6199 163.7 54.6199H161.778V50.2836H163.584C164.044 50.2836 164.406 50.3774 164.67 50.5697C164.929 50.7574 165.059 51.0346 165.059 51.3922C165.059 51.6336 164.996 51.8393 164.871 52.0092C164.746 52.179 164.572 52.2997 164.353 52.3847C164.652 52.4473 164.88 52.568 165.036 52.7468ZM162.234 52.2461H163.561C163.897 52.2461 164.151 52.179 164.335 52.0405C164.518 51.9019 164.603 51.7052 164.603 51.4459C164.603 51.1866 164.513 50.9854 164.335 50.8513C164.156 50.7127 163.897 50.6457 163.561 50.6457H162.234V52.2461ZM164.822 53.4174C164.822 52.872 164.446 52.5993 163.7 52.5993H162.229V54.2533H163.7C164.446 54.2578 164.822 53.9762 164.822 53.4174Z" fill="#2C2C32"/>
<path d="M170.104 54.2265V54.6244H167.037V50.2881H170.01V50.6859H167.493V52.2282H169.737V52.6172H167.493V54.2265H170.104Z" fill="#2C2C32"/>
<path d="M175.366 50.2836V54.6199H174.914V52.6171H172.201V54.6199H171.74V50.2836H172.201V52.2193H174.914V50.2836H175.366Z" fill="#2C2C32"/>
<path d="M181.075 50.2836V54.6199H180.623V52.6171H177.91V54.6199H177.449V50.2836H177.91V52.2193H180.623V50.2836H181.075Z" fill="#2C2C32"/>
<path d="M183.893 54.3696C183.544 54.1773 183.271 53.9136 183.075 53.5783C182.878 53.243 182.779 52.8675 182.779 52.4517C182.779 52.036 182.878 51.6605 183.075 51.3252C183.271 50.9899 183.544 50.7261 183.893 50.5339C184.241 50.3417 184.63 50.2478 185.059 50.2478C185.489 50.2478 185.877 50.3417 186.222 50.5339C186.566 50.7217 186.839 50.9854 187.035 51.3252C187.232 51.6605 187.33 52.0405 187.33 52.4562C187.33 52.872 187.232 53.2519 187.035 53.5872C186.839 53.9225 186.566 54.1863 186.222 54.3785C185.877 54.5707 185.489 54.6646 185.059 54.6646C184.63 54.6601 184.241 54.5618 183.893 54.3696ZM185.989 54.0164C186.266 53.8599 186.485 53.6454 186.642 53.3727C186.798 53.1 186.879 52.7915 186.879 52.4517C186.879 52.112 186.798 51.808 186.642 51.5308C186.485 51.2581 186.266 51.0436 185.989 50.8871C185.712 50.7306 185.404 50.6546 185.059 50.6546C184.715 50.6546 184.407 50.7306 184.125 50.8871C183.848 51.0436 183.629 51.2581 183.468 51.5308C183.307 51.8035 183.231 52.112 183.231 52.4517C183.231 52.7915 183.311 53.0955 183.468 53.3727C183.624 53.6498 183.848 53.8599 184.125 54.0164C184.402 54.1729 184.715 54.2489 185.059 54.2489C185.404 54.2489 185.712 54.1729 185.989 54.0164Z" fill="#2C2C32"/>
<path d="M188.801 52.2461H190.424V52.6305H188.801V52.2461Z" fill="#2C2C32"/>
<path d="M109.745 62.0319C109.401 61.8442 109.128 61.5804 108.936 61.2407C108.739 60.9054 108.641 60.5254 108.641 60.1096C108.641 59.6939 108.739 59.3139 108.936 58.9786C109.132 58.6433 109.401 58.3796 109.749 58.1873C110.098 57.9951 110.483 57.9012 110.916 57.9012C111.238 57.9012 111.538 57.9549 111.81 58.0622C112.083 58.1695 112.315 58.3259 112.503 58.5316L112.213 58.8222C111.873 58.4779 111.448 58.308 110.93 58.308C110.585 58.308 110.277 58.3885 109.995 58.545C109.714 58.7014 109.495 58.916 109.334 59.1887C109.173 59.4614 109.092 59.7654 109.092 60.1052C109.092 60.4449 109.173 60.7489 109.334 61.0216C109.495 61.2943 109.714 61.5089 109.995 61.6654C110.277 61.8218 110.585 61.9023 110.93 61.9023C111.448 61.9023 111.877 61.7279 112.213 61.3837L112.503 61.6743C112.311 61.8799 112.079 62.0409 111.806 62.1482C111.529 62.2599 111.234 62.3136 110.912 62.3136C110.478 62.3136 110.089 62.2197 109.745 62.0319Z" fill="#2C2C32"/>
<path d="M116.852 58.3348H115.328V62.2778H114.876V58.3348H113.352V57.937H116.852V58.3348Z" fill="#2C2C32"/>
<path d="M121.204 58.3348C121.517 58.5986 121.673 58.9651 121.673 59.4256C121.673 59.8861 121.517 60.2526 121.204 60.5119C120.891 60.7757 120.457 60.9053 119.903 60.9053H118.736V62.2733H118.276V57.937H119.898C120.453 57.9414 120.886 58.0711 121.204 58.3348ZM120.873 60.2258C121.101 60.0381 121.213 59.7743 121.213 59.4301C121.213 59.0769 121.101 58.8087 120.873 58.6209C120.645 58.4332 120.319 58.3393 119.889 58.3393H118.736V60.5075H119.889C120.319 60.5075 120.645 60.4136 120.873 60.2258Z" fill="#2C2C32"/>
<path d="M124.027 62.0274C123.679 61.8352 123.406 61.5714 123.209 61.2362C123.013 60.9009 122.914 60.5253 122.914 60.1096C122.914 59.6938 123.013 59.3183 123.209 58.983C123.406 58.6478 123.679 58.384 124.027 58.1918C124.376 57.9996 124.765 57.9057 125.194 57.9057C125.623 57.9057 126.012 57.9996 126.356 58.1918C126.701 58.3795 126.973 58.6433 127.17 58.983C127.367 59.3183 127.47 59.6983 127.47 60.1141C127.47 60.5298 127.371 60.9098 127.17 61.2451C126.973 61.5804 126.701 61.8441 126.356 62.0364C126.012 62.2286 125.623 62.3225 125.194 62.3225C124.765 62.3225 124.381 62.2197 124.027 62.0274ZM126.128 61.6743C126.406 61.5178 126.62 61.3032 126.781 61.0305C126.942 60.7578 127.018 60.4494 127.018 60.1096C127.018 59.7698 126.938 59.4659 126.781 59.1887C126.625 58.9115 126.406 58.7014 126.128 58.5449C125.851 58.3885 125.543 58.3125 125.199 58.3125C124.854 58.3125 124.546 58.3885 124.264 58.5449C123.983 58.7014 123.768 58.916 123.607 59.1887C123.446 59.4614 123.366 59.7698 123.366 60.1096C123.366 60.4494 123.446 60.7534 123.607 61.0305C123.768 61.3032 123.987 61.5178 124.264 61.6743C124.541 61.8307 124.854 61.9067 125.199 61.9067C125.543 61.9067 125.851 61.8307 126.128 61.6743Z" fill="#2C2C32"/>
<path d="M129.188 57.9414H129.639V61.5357L132.415 57.9414H132.831V62.2778H132.38V58.688L129.603 62.2778H129.188V57.9414Z" fill="#2C2C32"/>
<path d="M137.752 58.3348H136.228V62.2778H135.776V58.3348H134.252V57.937H137.752V58.3348Z" fill="#2C2C32"/>
<path d="M142.247 61.8799V62.2778H139.18V57.9414H142.153V58.3393H139.636V59.8816H141.88V60.2705H139.636V61.8799H142.247Z" fill="#2C2C32"/>
<path d="M147.283 57.9415V62.2778H146.832V58.3349H144.735L144.686 59.7833C144.664 60.3823 144.619 60.8651 144.538 61.2317C144.462 61.5983 144.346 61.871 144.19 62.0498C144.033 62.2286 143.823 62.318 143.564 62.318C143.452 62.318 143.336 62.3046 143.215 62.2733L143.251 61.8621C143.323 61.8799 143.39 61.8889 143.457 61.8889C143.64 61.8889 143.787 61.8174 143.899 61.6698C144.011 61.5223 144.1 61.3032 144.159 60.9993C144.217 60.6953 144.257 60.2929 144.275 59.7922L144.337 57.9325H147.283V57.9415Z" fill="#2C2C32"/>
<path d="M152.358 59.8369C152.63 60.0694 152.764 60.4091 152.764 60.8517C152.764 61.3166 152.621 61.6743 152.335 61.9157C152.049 62.1571 151.633 62.2778 151.092 62.2778H149.371V57.9414H149.823V59.4882H151.186C151.691 59.4882 152.085 59.6044 152.358 59.8369ZM151.991 61.6474C152.201 61.4686 152.304 61.2093 152.304 60.8606C152.304 60.1945 151.897 59.8637 151.079 59.8637H149.823V61.9157H151.079C151.477 61.9112 151.781 61.8218 151.991 61.6474Z" fill="#2C2C32"/>
<path d="M158.012 57.9415V62.2778H157.561V60.275H154.847V62.2778H154.387V57.9415H154.847V59.8771H157.561V57.9415H158.012Z" fill="#2C2C32"/>
<path d="M162.867 61.1199H160.448L159.93 62.2778H159.451L161.436 57.9414H161.888L163.873 62.2778H163.39L162.867 61.1199ZM162.701 60.7489L161.66 58.4198L160.618 60.7489H162.701Z" fill="#2C2C32"/>
<path d="M168.196 57.9414V62.2778H167.745V60.9634H166.448C166.39 60.9634 166.31 60.959 166.202 60.95L165.29 62.2778H164.803L165.787 60.8696C165.469 60.7757 165.223 60.6058 165.058 60.3644C164.892 60.123 164.803 59.828 164.803 59.4748C164.803 58.9875 164.955 58.6075 165.263 58.3393C165.572 58.0711 165.988 57.937 166.511 57.937H168.196V57.9414ZM165.572 60.2839C165.782 60.4762 166.086 60.5701 166.484 60.5701H167.74V58.3348H166.533C166.126 58.3348 165.813 58.4287 165.594 58.6209C165.371 58.8132 165.263 59.0948 165.263 59.4614C165.259 59.819 165.366 60.0917 165.572 60.2839Z" fill="#2C2C32"/>
<path d="M173.963 60.2884H172.971V62.2778H172.523V57.9415H172.971V59.8861H173.963L175.434 57.9415H175.93L174.321 60.047L176.024 62.2778H175.496L173.963 60.2884Z" fill="#2C2C32"/>
<path d="M178.072 62.0274C177.724 61.8352 177.451 61.5714 177.254 61.2362C177.058 60.9009 176.959 60.5253 176.959 60.1096C176.959 59.6938 177.058 59.3183 177.254 58.983C177.451 58.6478 177.724 58.384 178.072 58.1918C178.421 57.9996 178.81 57.9057 179.239 57.9057C179.668 57.9057 180.057 57.9996 180.401 58.1918C180.746 58.3795 181.018 58.6433 181.215 58.983C181.412 59.3183 181.515 59.6983 181.515 60.1141C181.515 60.5298 181.416 60.9098 181.215 61.2451C181.018 61.5804 180.746 61.8441 180.401 62.0364C180.057 62.2286 179.668 62.3225 179.239 62.3225C178.81 62.3225 178.421 62.2197 178.072 62.0274ZM180.173 61.6743C180.451 61.5178 180.665 61.3032 180.826 61.0305C180.987 60.7578 181.063 60.4494 181.063 60.1096C181.063 59.7698 180.983 59.4659 180.826 59.1887C180.67 58.9115 180.451 58.7014 180.173 58.5449C179.896 58.3885 179.588 58.3125 179.244 58.3125C178.899 58.3125 178.591 58.3885 178.309 58.5449C178.028 58.7014 177.813 58.916 177.652 59.1887C177.491 59.4614 177.411 59.7698 177.411 60.1096C177.411 60.4494 177.491 60.7534 177.652 61.0305C177.813 61.3032 178.032 61.5178 178.309 61.6743C178.586 61.8307 178.899 61.9067 179.244 61.9067C179.588 61.9067 179.896 61.8307 180.173 61.6743Z" fill="#2C2C32"/>
<path d="M187.736 57.9415V62.2778H187.298V58.8087L185.595 61.7279H185.376L183.673 58.8266V62.2778H183.235V57.9415H183.615L185.497 61.1557L187.361 57.9415H187.736Z" fill="#2C2C32"/>
<path d="M193.468 57.9414V62.2778H193.017V58.3348H190.272V62.2778H189.82V57.9414H193.468Z" fill="#2C2C32"/>
<path d="M198.328 61.1199H195.909L195.391 62.2778H194.912L196.897 57.9414H197.349L199.334 62.2778H198.851L198.328 61.1199ZM198.162 60.7489L197.121 58.4198L196.079 60.7489H198.162Z" fill="#2C2C32"/>
<path d="M204.407 57.9414V62.2778H203.955V60.275H201.242V62.2778H200.781V57.9414H201.242V59.8771H203.955V57.9414H204.407Z" fill="#2C2C32"/>
<path d="M206.49 57.9414H206.942V61.5357L209.718 57.9414H210.134V62.2778H209.682V58.688L206.906 62.2778H206.49V57.9414Z" fill="#2C2C32"/>
<path d="M215.288 57.9414V62.2778H214.836V60.9634H213.54C213.482 60.9634 213.401 60.959 213.294 60.95L212.382 62.2778H211.895L212.878 60.8696C212.561 60.7757 212.315 60.6058 212.149 60.3644C211.984 60.123 211.895 59.828 211.895 59.4748C211.895 58.9875 212.047 58.6075 212.355 58.3393C212.664 58.0711 213.079 57.937 213.602 57.937H215.288V57.9414ZM212.664 60.2839C212.874 60.4762 213.178 60.5701 213.576 60.5701H214.832V58.3348H213.616C213.209 58.3348 212.896 58.4287 212.677 58.6209C212.453 58.8132 212.346 59.0948 212.346 59.4614C212.351 59.819 212.453 60.0917 212.664 60.2839Z" fill="#2C2C32"/>
<path d="M87.7144 33.8413H79.748V62.7382H87.7144V33.8413Z" fill="#2C2C32"/>
<path d="M87.7191 54.7674H68.4023V62.7338H87.7191V54.7674Z" fill="#2C2C32"/>
<path d="M7.97024 33.8413H0.00390625V62.7382H7.97024V33.8413Z" fill="#2C2C32"/>
<path d="M19.3168 54.7674H0V62.7338H19.3168V54.7674Z" fill="#2C2C32"/>
<path d="M49.4824 20.9709V39.8317H38.2347V21.1497L30.2773 25.3832V62.7383H38.2347V47.0783H49.4824V62.7383H57.4442V25.2044L49.4824 20.9709Z" fill="#FCDB5C"/>
<path d="M87.7182 23.2687L60.9849 9.05713L52.5 13.5678L75.6435 25.8749H87.7182V23.2687Z" fill="#2C2C32"/>
<path d="M44.1054 0L0 23.452V25.8749H12.4189L52.5903 4.51069L44.1054 0Z" fill="#2C2C32"/>
<path d="M108.641 14.359H114.922V24.8691H117.434V14.359H123.715V37.5562C123.715 38.6917 123.769 39.6573 123.872 40.4575H118.534C118.096 40.4575 117.801 40.1178 117.653 39.4427C117.506 38.7677 117.434 37.5338 117.434 35.7456V29.9475H114.922V40.4575H108.641V14.359Z" fill="#2C2C32"/>
<path d="M126.541 40.453V14.3545H132.822V25.2267H134.078C136.823 25.2267 138.763 25.553 139.903 26.2057C141.043 26.8584 141.616 27.9805 141.616 29.5764V36.1033C141.616 37.6992 141.043 38.8213 139.903 39.474C138.763 40.1267 136.819 40.453 134.078 40.453H126.541ZM132.827 36.1033H134.083C134.919 36.1033 135.339 35.4998 135.339 34.2927V31.3914C135.339 30.1844 134.919 29.5809 134.083 29.5809H132.827V36.1033Z" fill="#2C2C32"/>
<path d="M144.287 14.3591H150.568V24.8691H152.294V18.3422C152.294 16.7463 152.866 15.6242 154.006 14.9715C155.146 14.3188 157.091 13.9925 159.831 13.9925C162.571 13.9925 164.516 14.3188 165.656 14.9715C166.796 15.6242 167.368 16.7463 167.368 18.3422V36.4654C167.368 38.0614 166.796 39.1835 165.656 39.8361C164.516 40.4888 162.571 40.8152 159.831 40.8152C157.091 40.8152 155.146 40.4888 154.006 39.8361C152.866 39.1835 152.294 38.0614 152.294 36.4654V29.9386H150.568V40.4486H144.287V14.3591ZM159.836 18.3422C159 18.3422 158.579 18.9457 158.579 20.1528V34.6504C158.579 35.8574 159 36.4609 159.836 36.4609C160.671 36.4609 161.092 35.8574 161.092 34.6504V20.1528C161.092 18.9502 160.671 18.3422 159.836 18.3422Z" fill="#2C2C32"/>
<path d="M169.73 14.359H184.804V19.433H180.405V40.4575H174.124V19.433H169.725V14.359H169.73Z" fill="#2C2C32"/>
<path d="M187.317 14.359H199.253V19.433H193.598V24.8691H197.366V29.943H193.598V35.3791H199.253V40.453H187.317V14.359Z" fill="#2C2C32"/>
<path d="M201.764 14.359H208.045V23.7827H209.238C209.551 23.7827 209.851 23.6128 210.133 23.2731C210.414 22.9333 210.557 22.5131 210.557 22.0035V14.3545H216.525V21.9677C216.525 22.7635 216.248 23.5279 215.694 24.2521C215.139 24.9763 214.42 25.5575 213.543 25.9911C214.487 26.4248 215.269 27.0417 215.899 27.8419C216.53 28.6376 216.843 29.4602 216.843 30.3051V37.5562C216.843 38.6917 216.896 39.6573 216.999 40.4575H211.661C211.223 40.4575 210.928 40.1177 210.781 39.4427C210.633 38.7677 210.562 37.5338 210.562 35.7456V30.6717C210.562 30.1397 210.468 29.7061 210.28 29.3663C210.092 29.0266 209.851 28.8567 209.556 28.8567H208.049V40.4575H201.768V14.359H201.764Z" fill="#2C2C32"/>
</svg>
