<svg width="16" height="16" viewBox="0 0 16 16" fill="none" xmlns="http://www.w3.org/2000/svg">
<path d="M11.1283 6.84842C10.9673 6.41083 10.7162 6.01192 10.3913 5.67744C10.0664 5.34297 9.67491 5.08038 9.24219 4.90665" stroke="#A1A1A1" stroke-linecap="round"/>
<path d="M13.7954 6.4471C13.5228 5.42976 12.9872 4.50211 12.2425 3.75737C11.4977 3.01263 10.5701 2.47705 9.55273 2.20445" stroke="#A1A1A1" stroke-linecap="round"/>
<path fill-rule="evenodd" clip-rule="evenodd" d="M6.36346 5.7619C6.63243 6.73374 6.32989 7.74762 5.667 8.37256C5.54132 8.49105 5.50081 8.68259 5.59955 8.82435C5.80974 9.12609 6.04879 9.41291 6.31683 9.68115C6.58447 9.949 6.8706 10.1879 7.17162 10.3981C7.31375 10.4973 7.50587 10.4561 7.62418 10.3294C8.2481 9.66119 9.26491 9.35535 10.2394 9.62545C11.5529 9.98954 12.2923 11.2621 11.8907 12.4679C10.714 16.0012 6.18363 12.499 4.84234 11.1567C3.46863 9.782 0.0203513 5.27769 3.52317 4.1094C4.72801 3.70753 5.99964 4.44738 6.36346 5.7619Z" stroke="#A1A1A1"/>
</svg>
