<svg width="40" height="40" viewBox="0 0 40 40" fill="none" xmlns="http://www.w3.org/2000/svg">
<circle cx="20" cy="20" r="20" fill="#34ABE3"/>
<g clip-path="url(#clip0_237_617)">
<path fill-rule="evenodd" clip-rule="evenodd" d="M25.3203 27.9826C25.5887 28.1726 25.9345 28.2201 26.2428 28.1035C26.5512 27.986 26.7778 27.7226 26.8462 27.4035C27.5703 24.0001 29.327 15.386 29.9862 12.2901C30.0362 12.0568 29.9528 11.8143 29.7695 11.6585C29.5862 11.5026 29.332 11.4576 29.1053 11.5418C25.6112 12.8351 14.8503 16.8726 10.452 18.5001C10.1728 18.6035 9.99116 18.8718 10.0003 19.166C10.0103 19.461 10.2087 19.7168 10.4945 19.8026C12.467 20.3926 15.0562 21.2135 15.0562 21.2135C15.0562 21.2135 16.2662 24.8676 16.897 26.726C16.9762 26.9593 17.1587 27.1426 17.3995 27.206C17.6395 27.2685 17.8962 27.2026 18.0753 27.0335C19.0887 26.0768 20.6553 24.5976 20.6553 24.5976C20.6553 24.5976 23.632 26.7801 25.3203 27.9826ZM16.1453 20.7518L17.5445 25.3668L17.8553 22.4443C17.8553 22.4443 23.2612 17.5685 26.3428 14.7893C26.4328 14.7076 26.4453 14.571 26.3703 14.4751C26.2962 14.3793 26.1595 14.3568 26.057 14.4218C22.4853 16.7026 16.1453 20.7518 16.1453 20.7518Z" fill="#F7F6F2"/>
</g>
<defs>
<clipPath id="clip0_237_617">
<rect width="20" height="20" fill="white" transform="translate(10 9)"/>
</clipPath>
</defs>
</svg>
