<svg width="80" height="54" viewBox="0 0 80 54" fill="none" xmlns="http://www.w3.org/2000/svg">
<path d="M2.20509 0.000425927H43.3431C45.5738 0.00289702 47.7127 0.890021 49.2899 2.46725C50.8671 4.04444 51.7542 6.18315 51.7567 8.41402V8.68832L66.9101 8.68893C69.5912 8.69202 72.0697 10.1185 73.4195 12.4352L80 23.7621V43.4233C80 44.0108 79.7665 44.5736 79.3513 44.9894C78.9362 45.4045 78.3728 45.6374 77.7859 45.6374H72.9591C72.2784 48.7103 70.2292 51.303 67.3961 52.6745C64.5636 54.046 61.259 54.046 58.4266 52.6745C55.5935 51.303 53.5443 48.7103 52.8635 45.6374H28.0655C27.3853 48.7103 25.3355 51.303 22.503 52.6745C19.6706 54.046 16.366 54.046 13.5329 52.6745C10.7004 51.303 8.6513 48.7103 7.97046 45.6374H2.2141C1.62661 45.6374 1.0632 45.4045 0.648056 44.9894C0.23291 44.5736 0 44.0108 0 43.4233V2.2141C0 0.994623 0.985962 0.00490266 2.20477 0L2.20509 0.000425927ZM62.9063 49.2959C64.4644 49.2959 65.9582 48.6769 67.0597 47.5754C68.1605 46.4732 68.7789 44.9788 68.7783 43.4214C68.7777 41.8633 68.1574 40.3695 67.0552 39.2687C65.9531 38.1684 64.4581 37.5507 62.9006 37.5524C61.3426 37.5537 59.8494 38.1745 58.7492 39.2772C57.6489 40.3799 57.0325 41.875 57.0342 43.4329C57.0367 44.9885 57.6563 46.4799 58.7573 47.5788C59.8581 48.6785 61.3506 49.2956 62.9062 49.2956L62.9063 49.2959ZM51.7561 41.2098H52.8545C53.5353 38.1369 55.5845 35.5449 58.417 34.1734C61.2494 32.8019 64.5546 32.8019 67.3871 34.1734C70.2196 35.5448 72.2687 38.1369 72.9495 41.2098H75.6066V26.6766H51.756L51.7561 41.2098ZM51.7561 22.2492H74.0031L69.5749 14.6592C69.0226 13.7134 68.0132 13.1278 66.9178 13.1185H51.7558L51.7561 22.2492ZM40.9957 10.9217H22.1047C20.8821 10.9217 19.8906 11.9132 19.8906 13.1358C19.8906 14.359 20.8821 15.3499 22.1047 15.3499H40.9957C42.2183 15.3499 43.2098 14.359 43.2098 13.1358C43.2098 11.9132 42.2183 10.9217 40.9957 10.9217ZM31.847 33.0627H40.9957C42.2183 33.0627 43.2098 32.0718 43.2098 30.8486C43.2098 29.626 42.2183 28.6345 40.9957 28.6345H31.847C30.6238 28.6345 29.6329 29.626 29.6329 30.8486C29.6329 32.0718 30.6238 33.0627 31.847 33.0627ZM18.0132 49.2968C19.5712 49.2968 21.065 48.6778 22.1665 47.5763C23.2674 46.4742 23.8858 44.9798 23.8851 43.4223C23.8845 41.8643 23.2643 40.3705 22.1621 39.2696C21.0593 38.1694 19.5649 37.5516 18.007 37.5534C16.4496 37.5546 14.9564 38.1755 13.8562 39.2782C12.7559 40.3809 12.1388 41.8759 12.1412 43.4339C12.1437 44.9894 12.7633 46.4808 13.8642 47.5798C14.9651 48.6794 16.4576 49.2965 18.0132 49.2965V49.2968ZM13.2483 24.2063H40.9957C42.2183 24.2063 43.2098 23.2154 43.2098 21.9922C43.2098 20.7696 42.2183 19.7781 40.9957 19.7781H13.2483C12.0257 19.7781 11.0341 20.7696 11.0341 21.9922C11.0341 23.2154 12.0257 24.2063 13.2483 24.2063Z" fill="#FCDB5C"/>
</svg>
