<svg width="80" height="80" viewBox="0 0 80 80" fill="none" xmlns="http://www.w3.org/2000/svg">
<path d="M78.0096 23.625H68.3861V15.1413C68.3861 14.12 67.5593 13.292 66.5368 13.292H62.1804C61.8847 12.6933 61.5487 12.1136 61.1792 11.558L63.3633 7.77172C63.607 7.34743 63.6736 6.84095 63.5456 6.36801C63.4181 5.89508 63.1106 5.4909 62.6852 5.24493L54.0248 0.247816C53.1387 -0.263129 52.0072 0.0415376 51.498 0.92703L49.32 4.70098C48.5805 4.64452 47.9012 4.64899 47.1236 4.71663L44.9042 0.968443C44.3827 0.0913369 43.2512 -0.201037 42.3708 0.318295L33.7686 5.40929C33.3465 5.65694 33.0413 6.06446 32.9205 6.54074C32.7981 7.01535 32.8702 7.51903 33.1207 7.94277L35.3477 11.7033C35.0123 12.2159 34.7077 12.7459 34.4399 13.2909H30.0762C29.0548 13.2909 28.2252 14.1177 28.2252 15.1402V23.6239H19.879L16.5204 14.7326C16.2912 14.1266 15.764 13.6861 15.1307 13.5682L4.94294 11.6569C4.75902 11.6245 4.57119 11.6156 4.3856 11.6385C2.86835 11.8157 0 13.116 0 16.758C0 20.3548 2.59716 21.7047 3.97016 21.9144C4.02662 21.9233 4.08364 21.93 4.13842 21.9323L10.1104 22.3023C11.125 22.3638 12.0072 21.5901 12.0714 20.5715C12.1329 19.5519 11.357 18.6748 10.3391 18.6122L4.51681 18.2511C4.12829 18.1376 3.69952 17.7815 3.69952 16.7585C3.69952 15.854 4.16742 15.4923 4.61129 15.3581L13.4271 17.0112L16.8707 26.1306V26.1322L27.0074 57.5735C27.2511 58.3405 27.9639 58.8564 28.7672 58.8564H71.8319C72.8515 58.8564 73.6811 58.0296 73.6811 57.0072C73.6811 55.9847 72.8527 55.1579 71.8319 55.1579H30.111L28.4379 49.9617L63.3983 47.7943C68.8101 47.7205 71.1726 44.1819 71.7461 42.113L79.6653 26.3022C79.9526 25.7298 79.9196 25.0483 79.5842 24.5028C79.2482 23.9577 78.6529 23.6251 78.0094 23.6251L78.0096 23.625ZM60.9252 44.2428L55.0275 44.6073V37.4351L61.5642 37.0812L60.9252 44.2428ZM46.0761 45.163L45.28 37.9644L51.3276 37.6357V44.8354L46.0761 45.163ZM36.7991 45.7354L35.1997 38.5113L41.581 38.1652L42.3787 45.3911L36.7991 45.7354ZM48.3083 28.0685C49.3766 28.0685 50.3963 27.8539 51.3271 27.4681V33.9321L44.8715 34.281L44.1029 27.3217H44.975C45.9896 27.7974 47.1159 28.0685 48.3083 28.0685ZM40.3792 27.3217L41.1735 34.4822L34.3899 34.8506L32.7245 27.3217L40.3792 27.3217ZM55.0279 33.7314V27.3228H62.4327L61.8944 33.3592L55.0279 33.7314ZM31.9257 16.9904H35.6448C36.4068 16.9904 37.0915 16.5247 37.3666 15.8137C37.7657 14.7923 38.3214 13.8213 39.0123 12.933C39.478 12.3326 39.5317 11.5092 39.1426 10.8556L37.2475 7.65068L42.6655 4.44573L44.5606 7.64338C44.9463 8.29687 45.692 8.64626 46.4389 8.52775C47.8499 8.30582 48.7365 8.30582 50.0251 8.50931C50.7815 8.62838 51.5316 8.26892 51.914 7.60816L53.7767 4.37974L59.2345 7.5253L57.3735 10.7503C56.995 11.4071 57.0554 12.2318 57.5283 12.8242C58.2523 13.7377 58.8337 14.7439 59.2551 15.8167C59.5335 16.5255 60.2166 16.9895 60.9769 16.9895H64.6871V23.6233H55.4225C55.9401 22.5707 56.2398 21.3905 56.2398 20.14C56.2398 19.1187 55.413 18.2891 54.3905 18.2891C53.368 18.2891 52.5412 19.1175 52.5412 20.14C52.5412 21.5852 51.81 22.8597 50.7004 23.6233H45.9185C44.8105 22.8597 44.0816 21.5857 44.0816 20.14C44.0816 17.8101 45.9766 15.9139 48.3078 15.9139C49.3291 15.9139 50.157 15.0854 50.157 14.0629C50.157 13.0404 49.3302 12.2136 48.3078 12.2136C43.939 12.2136 40.3797 15.769 40.3797 20.1395C40.3797 21.39 40.6811 22.5701 41.1987 23.6228H31.9256L31.9257 16.9904ZM28.9383 27.3222L30.6477 35.0535L23.7538 35.4286L21.1392 27.3221L28.9383 27.3222ZM27.2679 46.3272L24.9273 39.0688L31.4584 38.715L33.0628 45.9683L27.2679 46.3272ZM68.3504 40.6353C68.28 40.7712 68.228 40.9154 68.1956 41.0652C68.1906 41.0926 67.6539 43.3583 64.6659 43.9547L65.2954 36.877L68.0693 36.7271C69.0873 36.6718 69.8687 35.7997 69.8129 34.7784C69.7576 33.7604 68.8978 32.9649 67.8659 33.0348L65.6275 33.1555L66.1469 27.3226H75.0152L68.3504 40.6353Z" fill="#FCDB5C"/>
<path d="M35.0413 79.9988C39.5202 79.9988 43.1657 76.3534 43.1657 71.8762C43.1657 67.3951 39.5202 63.7502 35.0413 63.7502C30.5624 63.7502 26.917 67.3957 26.917 71.8762C26.9181 76.3545 30.5624 79.9988 35.0413 79.9988ZM35.0413 67.4493C37.4809 67.4493 39.4649 69.4361 39.4649 71.8763C39.4649 74.3159 37.4798 76.2981 35.0413 76.2981C32.6012 76.2981 30.6161 74.3148 30.6161 71.8763C30.6161 69.4361 32.6012 67.4493 35.0413 67.4493Z" fill="#FCDB5C"/>
<path d="M68.3468 71.8774C68.3468 67.3963 64.7014 63.7515 60.2225 63.7515C55.7436 63.7515 52.1016 67.3969 52.1016 71.8774C52.1016 76.3546 55.743 80 60.2225 80C64.7014 80 68.3468 76.3546 68.3468 71.8774ZM55.8007 71.8774C55.8007 69.4372 57.784 67.4504 60.2225 67.4504C62.6609 67.4504 64.646 69.4372 64.646 71.8774C64.646 74.317 62.6609 76.2992 60.2225 76.2992C57.7835 76.2992 55.8007 74.3158 55.8007 71.8774Z" fill="#FCDB5C"/>
</svg>
