<svg width="40" height="52" viewBox="0 0 40 52" fill="none" xmlns="http://www.w3.org/2000/svg">
<path d="M15.0792 51.3559H2.85627V26.8614H15.0792V51.3559ZM17.9354 51.3559H22.3812V26.8614H17.9354V51.3559ZM25.2375 26.8614V51.3559H37.4604V26.8614H25.2375ZM17.9354 25.5216H22.3812V18.7798H17.9354V25.5216ZM25.2375 18.7737V25.5155H40V18.7737H25.2375ZM15.0792 18.7737H0V25.5155H15.0792V18.7737ZM17.6675 13.9929C17.9233 14.6446 18.1547 15.3084 18.3557 15.9783C18.4592 16.3133 18.5505 16.6543 18.6236 17.0015C18.6602 17.1781 18.6906 17.3547 18.7028 17.5374C18.7089 17.6287 18.7089 17.7262 18.6906 17.8358C18.6784 17.8906 18.6663 17.9576 18.6054 18.0307C18.5688 18.0672 18.5201 18.0977 18.4714 18.1099C18.447 18.1159 18.4166 18.1159 18.3861 18.1159L18.3496 18.1099H18.3374C17.6431 18.0063 16.9671 17.8297 16.2972 17.6409C15.6273 17.4521 14.9574 17.2512 14.2996 17.0136C12.9781 16.5508 11.6687 16.0088 10.3959 15.3084C9.76858 14.9491 9.14737 14.5471 8.55663 14.0599C7.97198 13.5727 7.40561 13.0002 6.94885 12.2511C6.72351 11.8736 6.52862 11.4533 6.41291 10.9783C6.2972 10.5033 6.24847 9.98562 6.32764 9.47405C6.39463 8.96247 6.56516 8.48135 6.7905 8.06113C6.90012 7.85406 7.02802 7.65309 7.162 7.47039C7.229 7.37903 7.28988 7.29378 7.37514 7.19634L7.47868 7.07453L7.52132 7.02582L7.5883 6.95274C7.90499 6.61169 8.29476 6.28282 8.78806 6.03922C9.27527 5.79561 9.85992 5.66771 10.4019 5.68598C10.9501 5.69816 11.4434 5.84432 11.8697 6.02703C12.296 6.20973 12.6614 6.44725 12.9963 6.69695C14.2996 7.70791 15.1157 8.92593 15.8587 10.1561C16.5652 11.4046 17.1559 12.6836 17.6675 13.9929ZM18.4044 17.8297C18.4105 17.8297 18.4227 17.8358 18.4227 17.8297C18.4166 17.8297 18.4044 17.8297 18.4044 17.8297ZM12.9842 9.85163C12.5213 9.42532 12.0402 9.04166 11.5652 8.76151C11.0962 8.48136 10.6334 8.3291 10.3593 8.35346C10.2193 8.35955 10.1157 8.3961 9.98782 8.457C9.86601 8.524 9.71986 8.63362 9.57369 8.79805C9.22655 9.16955 9.02557 9.54103 8.95858 9.8699C8.89159 10.1988 8.94032 10.5885 9.15347 11.0514C9.36054 11.5021 9.70158 11.9832 10.1035 12.4399C10.5055 12.9028 10.9683 13.3474 11.4677 13.7676C12.4543 14.6202 13.5688 15.3937 14.732 16.0879C15.8892 16.77 17.1011 17.3851 18.3739 17.8175C18.3739 17.8114 18.3739 17.8054 18.3739 17.7993C18.3739 17.7384 18.3618 17.6653 18.3435 17.5861C18.3069 17.4339 18.2521 17.2755 18.1973 17.1233C18.0755 16.8127 17.9354 16.5082 17.7832 16.2037C17.4848 15.6007 17.1316 15.0161 16.7722 14.4436C16.0414 13.3047 15.2253 12.2207 14.3484 11.2341C13.9099 10.7469 13.4531 10.2779 12.9842 9.85163ZM22.3751 12.1172C22.095 12.7627 21.7905 13.39 21.4555 14.0112C21.2911 14.3218 21.1145 14.6263 20.9196 14.9247C20.8222 15.0709 20.7186 15.2231 20.5907 15.3571C20.5298 15.4302 20.4628 15.4972 20.3715 15.5642C20.3228 15.5946 20.268 15.6312 20.1705 15.6434C20.1218 15.6434 20.0609 15.6312 20.0183 15.6007C19.9939 15.5885 19.9756 15.5642 19.9574 15.5459L19.933 15.5155L19.9269 15.5033C19.5128 14.9369 19.1535 14.3401 18.8185 13.731C18.4775 13.122 18.1486 12.5069 17.8502 11.8736C17.2412 10.6129 16.6992 9.30352 16.2972 7.90888C16.1084 7.20851 15.9501 6.48379 15.877 5.72252C15.81 4.96125 15.81 4.15735 16.017 3.30474C16.1267 2.87843 16.285 2.43995 16.5408 2.02582C16.7905 1.6056 17.1315 1.20974 17.5396 0.899144C17.9476 0.588547 18.4105 0.363202 18.8672 0.223129C19.0986 0.156137 19.324 0.101326 19.5432 0.0708755C19.659 0.0526051 19.7564 0.0404297 19.8843 0.0282494L20.0426 0.0160665L20.1035 0.00997974L20.201 0.00389295C20.6638 -0.0143775 21.1754 0.0282453 21.6931 0.204859C22.2107 0.375383 22.7101 0.698155 23.0877 1.09401C23.4653 1.48987 23.715 1.94055 23.8855 2.37295C24.056 2.80535 24.1474 3.23167 24.2083 3.6397C24.4153 5.27186 24.1291 6.71522 23.7881 8.10986C23.4287 9.51059 22.9415 10.8321 22.3751 12.1172ZM20.1766 15.351C20.1827 15.3571 20.1827 15.3632 20.1888 15.3632C20.1888 15.3571 20.1827 15.3571 20.1766 15.351ZM21.9915 5.88087C21.9671 5.25359 21.894 4.63848 21.76 4.10864C21.6321 3.5788 21.4068 3.1464 21.1937 2.96979C21.0901 2.87234 20.9927 2.82362 20.8587 2.78099C20.7247 2.73836 20.542 2.72009 20.3228 2.72618C19.8173 2.74445 19.4032 2.86017 19.1291 3.04896C18.849 3.23166 18.6114 3.54226 18.4348 4.01729C18.2582 4.48623 18.1608 5.06479 18.1242 5.67381C18.0816 6.28282 18.0938 6.92837 18.1486 7.57393C18.2399 8.87722 18.4836 10.211 18.8185 11.5203C19.1535 12.8175 19.5798 14.1147 20.1705 15.3145C20.1766 15.3084 20.1827 15.3084 20.1827 15.3023C20.2253 15.2597 20.268 15.1988 20.3106 15.1318C20.3959 14.9978 20.4689 14.8516 20.5359 14.6994C20.6699 14.3949 20.7856 14.0782 20.8953 13.7615C21.1084 13.122 21.2728 12.4582 21.419 11.8005C21.7052 10.4789 21.894 9.133 21.9732 7.81753C22.0097 7.16588 22.0219 6.50815 21.9915 5.88087ZM25.8709 16.8675C25.2192 17.1233 24.5554 17.3486 23.8855 17.5557C23.5506 17.6592 23.2095 17.7505 22.8624 17.8236C22.6858 17.8602 22.5091 17.8906 22.3264 17.9028C22.2351 17.9089 22.1376 17.9089 22.028 17.8906C21.9732 17.8784 21.9062 17.8662 21.8331 17.8053C21.7966 17.7688 21.7661 17.7201 21.754 17.6714C21.7479 17.647 21.7479 17.6166 21.7479 17.5861L21.754 17.5496V17.5374C21.8575 16.8431 22.0341 16.1671 22.2229 15.4972C22.4117 14.8273 22.6188 14.1574 22.8502 13.4996C23.313 12.1781 23.8551 10.8687 24.5554 9.59586C24.9147 8.96857 25.3167 8.34737 25.8039 7.75662C26.2911 7.17197 26.8636 6.6056 27.6127 6.14884C27.9903 5.9235 28.4105 5.72861 28.8855 5.6129C29.3605 5.49719 29.8843 5.44848 30.3898 5.52765C30.9013 5.59464 31.3825 5.76515 31.8027 5.99049C32.0097 6.1062 32.2107 6.22801 32.3934 6.362C32.4848 6.42899 32.57 6.48987 32.6675 6.57514L32.7893 6.67868L32.838 6.72131L32.9111 6.78829C33.2521 7.10498 33.581 7.50084 33.8246 7.98805C34.0682 8.47526 34.1961 9.05991 34.1778 9.60193C34.1656 10.15 34.0195 10.6433 33.8368 11.0697C33.6541 11.5021 33.4166 11.8675 33.1669 12.1963C32.162 13.4996 30.9379 14.3157 29.7077 15.0587C28.4653 15.7652 27.1803 16.3559 25.8709 16.8675ZM22.0341 17.5983C22.0341 17.6044 22.028 17.6105 22.0341 17.6166C22.0341 17.6166 22.0341 17.6044 22.0341 17.5983ZM30.0122 12.1842C30.4385 11.7213 30.8222 11.2402 31.1023 10.7652C31.3886 10.2962 31.5347 9.83337 31.5103 9.55932C31.5043 9.41924 31.4677 9.3157 31.4068 9.18781C31.3459 9.06601 31.2302 8.91985 31.0658 8.77368C30.6943 8.42655 30.3228 8.21948 29.9939 8.15857C29.665 8.09158 29.2753 8.14031 28.8124 8.35346C28.3618 8.56053 27.8806 8.90157 27.4239 9.30352C26.961 9.70547 26.5164 10.1683 26.0962 10.6677C25.2436 11.6543 24.4702 12.7688 23.7759 13.932C23.0938 15.0892 22.4787 16.3011 22.0463 17.5739C22.0524 17.5739 22.0585 17.5739 22.0645 17.5739C22.1254 17.5739 22.1985 17.5617 22.2777 17.5435C22.43 17.5069 22.5883 17.4521 22.7406 17.3973C23.0512 17.2755 23.3557 17.1354 23.6602 16.9832C24.2631 16.6848 24.8477 16.3315 25.4202 15.9722C26.5591 15.2414 27.6431 14.4253 28.6297 13.5483C29.123 13.1038 29.592 12.6531 30.0122 12.1842Z" fill="#383736"/>
</svg>
