<svg width="1500" height="384" viewBox="0 0 1500 384" fill="none" xmlns="http://www.w3.org/2000/svg">
<g opacity="0.2">
<path d="M1277.3 165.24V225.27" stroke="#D1D3D4" stroke-miterlimit="10"/>
<path d="M1277.3 165.24V225.27" stroke="#939598" stroke-miterlimit="10"/>
<path d="M549.4 -14.87V45.16L601.39 15.15" stroke="#D1D3D4" stroke-miterlimit="10"/>
<path d="M341.42 45.16L393.42 15.15V-44.89" stroke="#D1D3D4" stroke-miterlimit="10"/>
<path d="M393.42 15.15L341.42 -14.87" stroke="#D1D3D4" stroke-miterlimit="10"/>
<path d="M341.42 -14.87L289.43 15.15V-44.89L341.42 -74.91" stroke="#D1D3D4" stroke-miterlimit="10"/>
<path d="M445.41 -14.87V45.16L497.4 15.15V-44.89" stroke="#D1D3D4" stroke-miterlimit="10"/>
<path d="M653.38 45.1601L705.38 75.1801" stroke="#D1D3D4" stroke-miterlimit="10"/>
<path d="M705.38 75.1801L757.37 45.1601" stroke="#D1D3D4" stroke-miterlimit="10"/>
<path d="M601.39 16.15V-43.89" stroke="#D1D3D4" stroke-miterlimit="10"/>
<path d="M601.39 15.15L653.38 45.16" stroke="#D1D3D4" stroke-miterlimit="10"/>
<path d="M705.38 15.15V-44.89" stroke="#D1D3D4" stroke-miterlimit="10"/>
<path d="M653.38 45.16L705.38 15.15" stroke="#D1D3D4" stroke-miterlimit="10"/>
<path d="M653.38 -14.87V45.16" stroke="#D1D3D4" stroke-miterlimit="10"/>
<path d="M705.38 15.15L757.37 45.16" stroke="#D1D3D4" stroke-miterlimit="10"/>
<path d="M757.37 -14.87V45.16" stroke="#D1D3D4" stroke-miterlimit="10"/>
<path d="M861.36 -14.8699V45.1601L809.36 75.1801" stroke="#D1D3D4" stroke-miterlimit="10"/>
<path d="M809.36 15.15V-44.89" stroke="#D1D3D4" stroke-miterlimit="10"/>
<path d="M757.37 45.16L809.36 15.15" stroke="#D1D3D4" stroke-miterlimit="10"/>
<path d="M809.36 15.15L861.36 45.16" stroke="#D1D3D4" stroke-miterlimit="10"/>
<path d="M913.35 -44.89V15.15" stroke="#D1D3D4" stroke-miterlimit="10"/>
<path d="M913.35 15.15L965.34 45.16" stroke="#D1D3D4" stroke-miterlimit="10"/>
<path d="M965.34 -14.87V45.16" stroke="#D1D3D4" stroke-miterlimit="10"/>
<path d="M1017.34 -44.89V15.15" stroke="#D1D3D4" stroke-miterlimit="10"/>
<path d="M1069.33 -14.87V45.16" stroke="#D1D3D4" stroke-miterlimit="10"/>
<path d="M965.34 45.1601V105.2" stroke="#D1D3D4" stroke-miterlimit="10"/>
<path d="M1069.33 45.16L1017.34 15.15" stroke="#D1D3D4" stroke-miterlimit="10"/>
<path d="M1017.34 15.15L965.34 45.16" stroke="#D1D3D4" stroke-miterlimit="10"/>
<path d="M965.34 45.1601L1017.34 75.1801" stroke="#D1D3D4" stroke-miterlimit="10"/>
<path d="M1017.34 75.1801L1069.33 45.1601" stroke="#D1D3D4" stroke-miterlimit="10"/>
<path d="M1121.32 -44.89V15.15" stroke="#D1D3D4" stroke-miterlimit="10"/>
<path d="M1173.31 -14.87V45.16" stroke="#D1D3D4" stroke-miterlimit="10"/>
<path d="M1173.31 45.16L1121.32 15.15" stroke="#D1D3D4" stroke-miterlimit="10"/>
<path d="M1121.32 15.15L1069.33 45.16" stroke="#D1D3D4" stroke-miterlimit="10"/>
<path d="M1069.33 45.1601L1121.32 75.1801" stroke="#D1D3D4" stroke-miterlimit="10"/>
<path d="M1121.32 75.1801L1173.31 45.1601" stroke="#D1D3D4" stroke-miterlimit="10"/>
<path d="M1121.32 75.1801V135.22" stroke="#D1D3D4" stroke-miterlimit="10"/>
<path d="M1225.31 -44.89V15.15" stroke="#D1D3D4" stroke-miterlimit="10"/>
<path d="M1329.29 -44.89V15.15" stroke="#D1D3D4" stroke-miterlimit="10"/>
<path d="M1381.29 45.16L1433.28 15.15" stroke="#D1D3D4" stroke-miterlimit="10"/>
<path d="M1381.29 -14.87V45.16" stroke="#D1D3D4" stroke-miterlimit="10"/>
<path d="M1173.31 45.1601V105.2" stroke="#D1D3D4" stroke-miterlimit="10"/>
<path d="M1277.3 45.16L1225.31 15.15" stroke="#D1D3D4" stroke-miterlimit="10"/>
<path d="M1225.31 15.15L1173.31 45.16" stroke="#D1D3D4" stroke-miterlimit="10"/>
<path d="M1173.31 45.1601L1225.31 75.1801" stroke="#D1D3D4" stroke-miterlimit="10"/>
<path d="M1225.31 75.1801L1277.3 45.1601" stroke="#D1D3D4" stroke-miterlimit="10"/>
<path d="M1225.31 75.1801V135.22" stroke="#D1D3D4" stroke-miterlimit="10"/>
<path d="M1381.29 45.16L1329.29 15.15" stroke="#D1D3D4" stroke-miterlimit="10"/>
<path d="M1329.29 15.15L1277.3 45.16" stroke="#D1D3D4" stroke-miterlimit="10"/>
<path d="M1381.29 105.2V45.1601" stroke="#D1D3D4" stroke-miterlimit="10"/>
<path d="M1277.3 45.1601L1329.29 75.1801" stroke="#D1D3D4" stroke-miterlimit="10"/>
<path d="M1329.29 75.1801L1381.29 45.1601" stroke="#D1D3D4" stroke-miterlimit="10"/>
<path d="M1329.29 75.1801V135.22" stroke="#D1D3D4" stroke-miterlimit="10"/>
<path d="M1225.31 195.26L1277.3 225.27" stroke="#D1D3D4" stroke-miterlimit="10"/>
<path d="M1329.29 135.22L1277.3 105.2" stroke="#D1D3D4" stroke-miterlimit="10"/>
<path d="M1277.3 105.2L1225.31 135.22" stroke="#D1D3D4" stroke-miterlimit="10"/>
<path d="M1329.29 195.26V135.22" stroke="#D1D3D4" stroke-miterlimit="10"/>
<path d="M1225.31 135.22L1277.3 165.24" stroke="#D1D3D4" stroke-miterlimit="10"/>
<path d="M1277.3 165.24L1329.29 135.22" stroke="#D1D3D4" stroke-miterlimit="10"/>
<path d="M1225.31 135.22L1173.31 105.2" stroke="#D1D3D4" stroke-miterlimit="10"/>
<path d="M1173.31 105.2L1121.32 135.22" stroke="#D1D3D4" stroke-miterlimit="10"/>
<path d="M1225.31 195.26V135.22" stroke="#D1D3D4" stroke-miterlimit="10"/>
<path d="M1121.32 135.22L1173.31 165.24" stroke="#D1D3D4" stroke-miterlimit="10"/>
<path d="M1173.31 165.24L1225.31 135.22" stroke="#D1D3D4" stroke-miterlimit="10"/>
<path d="M1173.31 165.24V225.27L1225.31 195.26" stroke="#D1D3D4" stroke-miterlimit="10"/>
<path d="M1121.32 135.22L1069.33 165.24" stroke="#D1D3D4" stroke-miterlimit="10"/>
<path d="M1225.31 255.29V195.26" stroke="#D1D3D4" stroke-miterlimit="10"/>
<path d="M1017.34 75.1801V135.22L1069.33 105.2V45.1601V105.2" stroke="#D1D3D4" stroke-miterlimit="10"/>
<path d="M705.38 15.15L653.38 45.16" stroke="#939598" stroke-miterlimit="10"/>
<path d="M653.38 45.1601L705.38 75.1801L757.37 45.1601" stroke="#939598" stroke-miterlimit="10"/>
<path d="M497.4 15.15V-44.89" stroke="#939598" stroke-miterlimit="10"/>
<path d="M601.39 15.15V-44.89" stroke="#939598" stroke-miterlimit="10"/>
<path d="M549.4 45.16L601.39 15.15" stroke="#939598" stroke-miterlimit="10"/>
<path d="M549.4 -14.87V45.16" stroke="#939598" stroke-miterlimit="10"/>
<path d="M601.39 15.15L653.38 45.16" stroke="#939598" stroke-miterlimit="10"/>
<path d="M705.38 15.15V-44.89" stroke="#939598" stroke-miterlimit="10"/>
<path d="M653.38 -14.87V45.16" stroke="#939598" stroke-miterlimit="10"/>
<path d="M705.38 15.15L757.37 45.16" stroke="#939598" stroke-miterlimit="10"/>
<path d="M757.37 -14.87V45.16" stroke="#939598" stroke-miterlimit="10"/>
<path d="M393.42 15.15V-44.89" stroke="#939598" stroke-miterlimit="10"/>
<path d="M1017.34 15.15L965.34 45.16L913.35 15.15" stroke="#939598" stroke-miterlimit="10"/>
<path d="M1017.34 -44.89V15.15" stroke="#939598" stroke-miterlimit="10"/>
<path d="M1069.33 -14.87V45.16" stroke="#939598" stroke-miterlimit="10"/>
<path d="M1069.33 45.16L1017.34 15.15" stroke="#939598" stroke-miterlimit="10"/>
<path d="M1017.34 75.1801L1069.33 45.1601" stroke="#939598" stroke-miterlimit="10"/>
<path d="M1173.31 45.16L1121.32 15.15V-44.89" stroke="#939598" stroke-miterlimit="10"/>
<path d="M1173.31 -14.87V45.16" stroke="#939598" stroke-miterlimit="10"/>
<path d="M1069.33 45.1601V105.2" stroke="#939598" stroke-miterlimit="10"/>
<path d="M1069.33 45.1601L1121.32 75.1801" stroke="#939598" stroke-miterlimit="10"/>
<path d="M1121.32 75.1801L1173.31 45.1601" stroke="#939598" stroke-miterlimit="10"/>
<path d="M1329.29 -44.89V15.15" stroke="#939598" stroke-miterlimit="10"/>
<path d="M1381.29 45.16L1433.28 15.15" stroke="#939598" stroke-miterlimit="10"/>
<path d="M1381.29 -14.87V45.16" stroke="#939598" stroke-miterlimit="10"/>
<path d="M1225.31 15.15L1173.31 45.16L1225.31 15.15ZM1225.31 15.15V-44.89V15.15Z" stroke="#939598" stroke-miterlimit="10"/>
<path d="M1173.31 45.1601L1225.31 75.1801" stroke="#939598" stroke-miterlimit="10"/>
<path d="M1225.31 75.1801L1277.3 45.1601" stroke="#939598" stroke-miterlimit="10"/>
<path d="M1225.31 75.18V135.22" stroke="#939598" stroke-miterlimit="10"/>
<path d="M1381.29 45.16L1329.29 15.15" stroke="#939598" stroke-miterlimit="10"/>
<path d="M1329.29 15.15L1277.3 45.16" stroke="#939598" stroke-miterlimit="10"/>
<path d="M1381.29 105.2V45.1601" stroke="#939598" stroke-miterlimit="10"/>
<path d="M1329.29 135.22L1381.29 105.2" stroke="#939598" stroke-miterlimit="10"/>
<path d="M1277.3 45.1601L1329.29 75.1801" stroke="#939598" stroke-miterlimit="10"/>
<path d="M1329.29 75.1801L1381.29 45.1601" stroke="#939598" stroke-miterlimit="10"/>
<path d="M1329.29 75.18V135.22" stroke="#939598" stroke-miterlimit="10"/>
<path d="M1329.29 135.22L1277.3 105.2" stroke="#939598" stroke-miterlimit="10"/>
<path d="M1277.3 105.2L1225.31 135.22" stroke="#939598" stroke-miterlimit="10"/>
<path d="M1329.29 195.26V135.22" stroke="#939598" stroke-miterlimit="10"/>
<path d="M1277.3 225.27L1329.29 195.26" stroke="#939598" stroke-miterlimit="10"/>
<path d="M1225.31 135.22L1277.3 165.24" stroke="#939598" stroke-miterlimit="10"/>
<path d="M1277.3 165.24L1329.29 135.22" stroke="#939598" stroke-miterlimit="10"/>
<path d="M1173.31 105.2L1225.31 135.22L1173.31 105.2ZM1173.31 105.2L1121.32 135.22V75.18V135.22" stroke="#939598" stroke-miterlimit="10"/>
<path d="M1225.31 195.26L1173.31 225.27V165.24L1225.31 135.22" stroke="#939598" stroke-miterlimit="10"/>
<path d="M809.36 -44.89V15.15V-44.89ZM809.36 -44.89V15.15L861.36 45.16V-14.87" stroke="#939598" stroke-miterlimit="10"/>
<path d="M965.34 -14.87V45.16" stroke="#939598" stroke-miterlimit="10"/>
</g>
</svg>
