<svg width="40" height="40" viewBox="0 0 40 40" fill="none" xmlns="http://www.w3.org/2000/svg">
<circle cx="20" cy="20" r="20" fill="#4CBA68"/>
<path d="M25.2783 21.5768C25.2355 21.5561 23.6316 20.7608 23.3466 20.6575C23.2303 20.6155 23.1056 20.5744 22.9731 20.5744C22.7565 20.5744 22.5746 20.6831 22.4328 20.8965C22.2726 21.1363 21.7876 21.7072 21.6378 21.8777C21.6182 21.9003 21.5915 21.9272 21.5755 21.9272C21.5611 21.9272 21.3129 21.8242 21.2378 21.7914C19.5173 21.0388 18.2113 19.2291 18.0323 18.9239C18.0067 18.8801 18.0056 18.8601 18.0054 18.8601C18.0117 18.8369 18.0696 18.7785 18.0994 18.7484C18.1868 18.6613 18.2814 18.5466 18.373 18.4356C18.4163 18.3831 18.4598 18.3304 18.5024 18.2808C18.6353 18.1251 18.6944 18.0043 18.763 17.8643L18.7989 17.7916C18.9663 17.4567 18.8233 17.174 18.7771 17.0827C18.7392 17.0064 18.062 15.3606 17.99 15.1877C17.8168 14.7704 17.5881 14.5762 17.2701 14.5762C17.2406 14.5762 17.2701 14.5762 17.1464 14.5814C16.9958 14.5878 16.1754 14.6966 15.8127 14.9268C15.4281 15.171 14.7773 15.9494 14.7773 17.3182C14.7773 18.5502 15.5538 19.7135 15.8871 20.1559C15.8954 20.167 15.9106 20.1897 15.9327 20.2222C17.2093 22.0996 18.8008 23.4909 20.4142 24.1398C21.9674 24.7646 22.7029 24.8368 23.1211 24.8368H23.1211C23.2968 24.8368 23.4375 24.8229 23.5616 24.8106L23.6403 24.8031C24.1768 24.7552 25.356 24.1399 25.6242 23.3894C25.8355 22.7982 25.8912 22.1523 25.7506 21.9179C25.6543 21.7586 25.4884 21.6784 25.2783 21.5768Z" fill="white"/>
<path d="M20.1953 8.84766C14.237 8.84766 9.38955 13.6921 9.38955 19.6466C9.38955 21.5726 9.90141 23.4578 10.8711 25.1077L9.01513 30.6204C8.98055 30.7232 9.00627 30.8368 9.08177 30.9142C9.13627 30.9702 9.2102 31.0004 9.2857 31.0004C9.31463 31.0004 9.34377 30.996 9.3722 30.9869L15.0808 29.1603C16.6429 30.0008 18.4085 30.4444 20.1953 30.4444C26.1531 30.4445 31 25.6006 31 19.6466C31 13.6921 26.1531 8.84766 20.1953 8.84766ZM20.1953 28.1949C18.5139 28.1949 16.8854 27.7061 15.4856 26.7811C15.4385 26.75 15.3838 26.734 15.3288 26.734C15.2998 26.734 15.2706 26.7385 15.2423 26.7475L12.3826 27.6628L13.3058 24.9204C13.3356 24.8317 13.3207 24.7338 13.2657 24.6581C12.1997 23.1914 11.6362 21.4586 11.6362 19.6466C11.6362 14.9325 15.4758 11.0972 20.1952 11.0972C24.9141 11.0972 28.7532 14.9325 28.7532 19.6466C28.7533 24.3602 24.9142 28.1949 20.1953 28.1949Z" fill="white"/>
</svg>
