<svg width="40" height="40" viewBox="0 0 40 40" fill="none" xmlns="http://www.w3.org/2000/svg">
<circle cx="20" cy="20" r="20" fill="#4C75A3"/>
<path fill-rule="evenodd" clip-rule="evenodd" d="M19.3296 26.9131H20.8359C20.8359 26.9131 21.2907 26.8639 21.5233 26.6186C21.7371 26.393 21.7303 25.9698 21.7303 25.9698C21.7303 25.9698 21.7008 23.988 22.6387 23.6961C23.5636 23.4084 24.751 25.6115 26.0094 26.4586C26.9612 27.0995 27.6844 26.9592 27.6844 26.9592L31.0497 26.9131C31.0497 26.9131 32.8101 26.8066 31.9754 25.4494C31.907 25.3385 31.4891 24.4454 29.473 22.6104C27.3627 20.6899 27.6456 21.0006 30.1875 17.6785C31.7355 15.6553 32.3543 14.4203 32.1609 13.8913C31.9767 13.3873 30.838 13.5205 30.838 13.5205L27.0489 13.5434C27.0489 13.5434 26.7678 13.5059 26.5596 13.6281C26.356 13.7476 26.2253 14.0267 26.2253 14.0267C26.2253 14.0267 25.6253 15.5922 24.8258 16.9237C23.1385 19.7331 22.4638 19.8818 22.188 19.7071C21.5463 19.3004 21.7066 18.0739 21.7066 17.2023C21.7066 14.4796 22.1278 13.3444 20.8865 13.0506C20.4747 12.9531 20.1713 12.8886 19.1179 12.8781C17.7658 12.8646 16.6217 12.8822 15.9738 13.1935C15.5427 13.4005 15.2101 13.8616 15.4128 13.8882C15.6633 13.9209 16.2303 14.0383 16.5309 14.4394C16.9193 14.9576 16.9058 16.1208 16.9058 16.1208C16.9058 16.1208 17.1289 19.3258 16.3847 19.7238C15.874 19.9968 15.1734 19.4394 13.6691 16.8906C12.8985 15.585 12.3164 14.1417 12.3164 14.1417C12.3164 14.1417 12.2044 13.8721 12.0042 13.7277C11.7614 13.5528 11.4222 13.4974 11.4222 13.4974L7.82136 13.5205C7.82136 13.5205 7.28095 13.5352 7.08236 13.7657C6.90568 13.9709 7.06825 14.3948 7.06825 14.3948C7.06825 14.3948 9.88708 20.8618 13.0791 24.1208C16.0063 27.1092 19.3296 26.9131 19.3296 26.9131Z" fill="white"/>
</svg>
