<svg width="200" height="58" viewBox="0 0 200 58" fill="none" xmlns="http://www.w3.org/2000/svg">
<path d="M103.838 46.3445V50.3411H103.422V46.7071H100.892V50.3411H100.476V46.3445H103.838Z" fill="#F7F6F2"/>
<path d="M108.452 46.7112C108.741 46.9543 108.885 47.2921 108.885 47.7165C108.885 48.1409 108.741 48.4788 108.452 48.7177C108.164 48.9608 107.764 49.0803 107.253 49.0803H106.178V50.3411H105.754V46.3445H107.249C107.76 46.3445 108.16 46.4681 108.452 46.7112ZM108.148 48.4499C108.358 48.2769 108.461 48.0338 108.461 47.7165C108.461 47.391 108.358 47.1438 108.148 46.9707C107.937 46.7977 107.637 46.7112 107.241 46.7112H106.178V48.7095H107.241C107.637 48.7095 107.937 48.623 108.148 48.4499Z" fill="#F7F6F2"/>
<path d="M111.057 50.1104C110.735 49.9332 110.484 49.6901 110.303 49.3811C110.121 49.0721 110.031 48.726 110.031 48.3428C110.031 47.9596 110.121 47.6135 110.303 47.3045C110.484 46.9955 110.735 46.7524 111.057 46.5752C111.378 46.398 111.737 46.3115 112.132 46.3115C112.528 46.3115 112.886 46.398 113.203 46.5752C113.521 46.7483 113.772 46.9913 113.953 47.3045C114.135 47.6135 114.225 47.9637 114.225 48.3469C114.225 48.7301 114.135 49.0803 113.953 49.3893C113.772 49.6983 113.521 49.9415 113.203 50.1186C112.886 50.2958 112.528 50.3823 112.132 50.3823C111.737 50.3782 111.378 50.2875 111.057 50.1104ZM112.989 49.7849C113.245 49.6407 113.446 49.4429 113.591 49.1916C113.735 48.9402 113.809 48.6559 113.809 48.3428C113.809 48.0297 113.735 47.7495 113.591 47.494C113.446 47.2427 113.245 47.0449 112.989 46.9007C112.734 46.7565 112.449 46.6865 112.132 46.6865C111.815 46.6865 111.531 46.7565 111.271 46.9007C111.016 47.0449 110.814 47.2427 110.665 47.494C110.517 47.7454 110.447 48.0297 110.447 48.3428C110.447 48.6559 110.521 48.9361 110.665 49.1916C110.809 49.447 111.016 49.6407 111.271 49.7849C111.526 49.9291 111.815 49.9991 112.132 49.9991C112.449 49.9991 112.738 49.9291 112.989 49.7849Z" fill="#F7F6F2"/>
<path d="M115.811 46.3445H116.227V49.6572L118.786 46.3445H119.169V50.3411H118.753V47.0325L116.194 50.3411H115.811V46.3445Z" fill="#F7F6F2"/>
<path d="M123.446 48.6065C123.599 48.7795 123.673 48.9855 123.673 49.2245C123.673 49.4553 123.599 49.6613 123.454 49.8343C123.31 50.0074 123.116 50.1433 122.877 50.2381C122.639 50.3329 122.375 50.3782 122.095 50.3782C121.827 50.3782 121.567 50.337 121.308 50.2505C121.052 50.1639 120.821 50.0362 120.615 49.8632L120.772 49.5583C120.945 49.7066 121.147 49.822 121.374 49.9002C121.6 49.9785 121.827 50.0156 122.053 50.0156C122.272 50.0156 122.47 49.9826 122.655 49.9126C122.836 49.8426 122.985 49.7478 123.092 49.6201C123.199 49.4923 123.252 49.3399 123.252 49.1668C123.252 48.9361 123.162 48.7548 122.976 48.6312C122.795 48.5035 122.536 48.4417 122.206 48.4417H121.349V48.0997H122.181C122.461 48.0997 122.684 48.0379 122.84 47.9184C122.997 47.7989 123.075 47.63 123.075 47.4198C123.075 47.185 122.976 46.9996 122.774 46.8636C122.573 46.7277 122.317 46.6617 122.016 46.6617C121.827 46.6617 121.633 46.6906 121.44 46.7441C121.246 46.7977 121.06 46.8801 120.887 46.9914L120.743 46.6411C121.139 46.4063 121.567 46.2868 122.029 46.2868C122.301 46.2868 122.548 46.3321 122.77 46.4186C122.993 46.5052 123.174 46.6329 123.302 46.7977C123.434 46.9625 123.5 47.152 123.5 47.3745C123.5 47.5888 123.442 47.7701 123.322 47.9266C123.203 48.0791 123.038 48.1903 122.824 48.2563C123.088 48.3181 123.294 48.4334 123.446 48.6065Z" fill="#F7F6F2"/>
<path d="M128.299 48.6147C128.444 48.7795 128.518 48.9979 128.518 49.2616C128.518 49.6077 128.394 49.8755 128.151 50.0609C127.904 50.2463 127.545 50.3411 127.067 50.3411H125.296V46.3445H126.956C127.385 46.3445 127.714 46.431 127.957 46.6082C128.201 46.7853 128.316 47.0367 128.316 47.3663C128.316 47.5888 128.258 47.7783 128.143 47.9349C128.027 48.0915 127.871 48.2027 127.665 48.281C127.941 48.3387 128.151 48.4499 128.299 48.6147ZM125.712 48.1533H126.936C127.245 48.1533 127.48 48.0915 127.644 47.9637C127.809 47.836 127.892 47.6547 127.892 47.4157C127.892 47.1768 127.809 46.9913 127.644 46.8677C127.48 46.74 127.241 46.6782 126.936 46.6782H125.712V48.1533ZM128.098 49.2328C128.098 48.7301 127.751 48.4788 127.063 48.4788H125.708V50.0033H127.063C127.751 50.0074 128.098 49.7478 128.098 49.2328Z" fill="#F7F6F2"/>
<path d="M130.818 50.1104C130.497 49.9332 130.246 49.6901 130.064 49.3811C129.883 49.0721 129.792 48.726 129.792 48.3428C129.792 47.9596 129.883 47.6135 130.064 47.3045C130.246 46.9955 130.497 46.7524 130.818 46.5752C131.14 46.398 131.498 46.3115 131.894 46.3115C132.289 46.3115 132.648 46.398 132.965 46.5752C133.282 46.7483 133.534 46.9913 133.715 47.3045C133.896 47.6135 133.991 47.9637 133.991 48.3469C133.991 48.7301 133.9 49.0803 133.715 49.3893C133.534 49.6983 133.282 49.9415 132.965 50.1186C132.648 50.2958 132.289 50.3823 131.894 50.3823C131.498 50.3823 131.144 50.2875 130.818 50.1104ZM132.755 49.7849C133.01 49.6407 133.208 49.4429 133.356 49.1916C133.505 48.9402 133.575 48.6559 133.575 48.3428C133.575 48.0297 133.501 47.7495 133.356 47.494C133.212 47.2386 133.01 47.0449 132.755 46.9007C132.499 46.7565 132.215 46.6865 131.898 46.6865C131.581 46.6865 131.296 46.7565 131.037 46.9007C130.777 47.0449 130.579 47.2427 130.431 47.494C130.283 47.7454 130.209 48.0297 130.209 48.3428C130.209 48.6559 130.283 48.9361 130.431 49.1916C130.579 49.4429 130.781 49.6407 131.037 49.7849C131.292 49.9291 131.581 49.9991 131.898 49.9991C132.215 49.9991 132.499 49.9291 132.755 49.7849Z" fill="#F7F6F2"/>
<path d="M139.132 49.9785V51.2393H138.737V50.3411H135.247L135.243 51.2393H134.847L134.851 49.9785H135.053C135.317 49.962 135.498 49.756 135.601 49.3522C135.704 48.9526 135.766 48.3799 135.791 47.6423L135.836 46.3445H138.531V49.9785H139.132ZM136.03 49.1874C135.956 49.583 135.832 49.8467 135.655 49.9785H138.115V46.7112H136.203L136.17 47.6835C136.149 48.2892 136.104 48.7919 136.03 49.1874Z" fill="#F7F6F2"/>
<path d="M141.241 50.1145C140.923 49.9415 140.672 49.6984 140.491 49.3852C140.309 49.0762 140.219 48.726 140.219 48.3428C140.219 47.9596 140.309 47.6094 140.491 47.3004C140.672 46.9914 140.923 46.7483 141.241 46.5711C141.562 46.3939 141.916 46.3074 142.316 46.3074C142.613 46.3074 142.885 46.3568 143.14 46.4557C143.391 46.5546 143.606 46.6988 143.779 46.8884L143.511 47.1562C143.198 46.8389 142.806 46.6823 142.328 46.6823C142.011 46.6823 141.727 46.7565 141.467 46.9007C141.208 47.0449 141.006 47.2427 140.857 47.494C140.709 47.7454 140.639 48.0255 140.639 48.3387C140.639 48.6518 140.713 48.932 140.857 49.1833C141.006 49.4347 141.208 49.6324 141.467 49.7766C141.727 49.9208 142.015 49.995 142.328 49.995C142.806 49.995 143.202 49.8343 143.511 49.5171L143.779 49.7849C143.606 49.9744 143.391 50.1227 143.136 50.2216C142.88 50.3205 142.608 50.3741 142.312 50.3741C141.916 50.3782 141.558 50.2917 141.241 50.1145Z" fill="#F7F6F2"/>
<path d="M147.792 46.7112H146.387V50.3452H145.971V46.7112H144.566V46.3445H147.792V46.7112Z" fill="#F7F6F2"/>
<path d="M152.108 48.6147C152.252 48.7795 152.326 48.9979 152.326 49.2616C152.326 49.6077 152.203 49.8755 151.96 50.0609C151.712 50.2463 151.354 50.3411 150.876 50.3411H149.104V46.3445H150.769C151.193 46.3445 151.527 46.431 151.77 46.6082C152.009 46.7812 152.129 47.0367 152.129 47.3663C152.129 47.5888 152.071 47.7783 151.955 47.9349C151.84 48.0915 151.679 48.2027 151.478 48.281C151.754 48.3387 151.964 48.4499 152.108 48.6147ZM149.525 48.1533H150.748C151.057 48.1533 151.292 48.0915 151.461 47.9637C151.63 47.836 151.708 47.6547 151.708 47.4157C151.708 47.1768 151.626 46.9913 151.461 46.8677C151.296 46.74 151.057 46.6782 150.748 46.6782H149.525V48.1533ZM151.91 49.2328C151.91 48.7301 151.564 48.4788 150.876 48.4788H149.52V50.0033H150.876C151.564 50.0074 151.91 49.7478 151.91 49.2328Z" fill="#F7F6F2"/>
<path d="M156.778 49.9785V50.3452H153.952V46.3486H156.692V46.7153H154.372V48.1368H156.441V48.4953H154.372V49.9785H156.778Z" fill="#F7F6F2"/>
<path d="M161.628 46.3445V50.3411H161.212V48.4952H158.711V50.3411H158.287V46.3445H158.711V48.1285H161.212V46.3445H161.628Z" fill="#F7F6F2"/>
<path d="M166.89 46.3445V50.3411H166.474V48.4952H163.973V50.3411H163.548V46.3445H163.973V48.1285H166.474V46.3445H166.89Z" fill="#F7F6F2"/>
<path d="M169.487 50.1104C169.165 49.9332 168.914 49.6901 168.733 49.3811C168.552 49.0721 168.461 48.726 168.461 48.3428C168.461 47.9596 168.552 47.6135 168.733 47.3045C168.914 46.9955 169.165 46.7524 169.487 46.5752C169.808 46.398 170.167 46.3115 170.562 46.3115C170.958 46.3115 171.316 46.398 171.634 46.5752C171.951 46.7483 172.202 46.9913 172.383 47.3045C172.565 47.6135 172.655 47.9637 172.655 48.3469C172.655 48.7301 172.565 49.0803 172.383 49.3893C172.202 49.6983 171.951 49.9415 171.634 50.1186C171.316 50.2958 170.958 50.3823 170.562 50.3823C170.167 50.3782 169.808 50.2875 169.487 50.1104ZM171.419 49.7849C171.675 49.6407 171.877 49.4429 172.021 49.1916C172.165 48.9402 172.239 48.6559 172.239 48.3428C172.239 48.0297 172.165 47.7495 172.021 47.494C171.877 47.2427 171.675 47.0449 171.419 46.9007C171.164 46.7565 170.88 46.6865 170.562 46.6865C170.245 46.6865 169.961 46.7565 169.701 46.9007C169.446 47.0449 169.244 47.2427 169.095 47.494C168.947 47.7454 168.877 48.0297 168.877 48.3428C168.877 48.6559 168.951 48.9361 169.095 49.1916C169.24 49.447 169.446 49.6407 169.701 49.7849C169.957 49.9291 170.245 49.9991 170.562 49.9991C170.88 49.9991 171.164 49.9291 171.419 49.7849Z" fill="#F7F6F2"/>
<path d="M174.011 48.1532H175.506V48.5076H174.011V48.1532Z" fill="#F7F6F2"/>
<path d="M101.148 57.1725C100.831 56.9994 100.579 56.7564 100.402 56.4432C100.221 56.1342 100.13 55.784 100.13 55.4008C100.13 55.0176 100.221 54.6674 100.402 54.3584C100.583 54.0493 100.831 53.8063 101.152 53.6291C101.473 53.4519 101.828 53.3654 102.227 53.3654C102.524 53.3654 102.8 53.4148 103.051 53.5137C103.303 53.6126 103.517 53.7568 103.69 53.9463L103.422 54.2142C103.109 53.8969 102.718 53.7403 102.24 53.7403C101.922 53.7403 101.638 53.8145 101.379 53.9587C101.119 54.1029 100.917 54.3007 100.769 54.552C100.62 54.8033 100.546 55.0835 100.546 55.3967C100.546 55.7098 100.62 55.99 100.769 56.2413C100.917 56.4927 101.119 56.6904 101.379 56.8346C101.638 56.9788 101.922 57.053 102.24 57.053C102.718 57.053 103.113 56.8923 103.422 56.5751L103.69 56.8429C103.513 57.0324 103.299 57.1807 103.047 57.2796C102.792 57.3826 102.52 57.4321 102.223 57.4321C101.824 57.4321 101.465 57.3455 101.148 57.1725Z" fill="#F7F6F2"/>
<path d="M107.698 53.765H106.293V57.3991H105.877V53.765H104.472V53.3983H107.698V53.765Z" fill="#F7F6F2"/>
<path d="M111.709 53.765C111.997 54.0081 112.142 54.346 112.142 54.7703C112.142 55.1947 111.997 55.5326 111.709 55.7716C111.42 56.0147 111.021 56.1342 110.51 56.1342H109.435V57.3949H109.01V53.3983H110.506C111.017 53.4024 111.416 53.5219 111.709 53.765ZM111.404 55.5079C111.614 55.3348 111.717 55.0917 111.717 54.7745C111.717 54.449 111.614 54.2018 111.404 54.0287C111.194 53.8557 110.893 53.7691 110.498 53.7691H109.435V55.7674H110.498C110.893 55.7674 111.194 55.6809 111.404 55.5079Z" fill="#F7F6F2"/>
<path d="M114.311 57.1683C113.99 56.9912 113.739 56.7481 113.557 56.4391C113.376 56.13 113.285 55.7839 113.285 55.4008C113.285 55.0176 113.376 54.6715 113.557 54.3625C113.739 54.0534 113.99 53.8103 114.311 53.6332C114.633 53.456 114.991 53.3695 115.387 53.3695C115.782 53.3695 116.141 53.456 116.458 53.6332C116.775 53.8062 117.027 54.0493 117.208 54.3625C117.389 54.6715 117.484 55.0217 117.484 55.4049C117.484 55.7881 117.393 56.1383 117.208 56.4473C117.027 56.7563 116.775 56.9994 116.458 57.1766C116.141 57.3538 115.782 57.4403 115.387 57.4403C114.991 57.4403 114.637 57.3455 114.311 57.1683ZM116.248 56.8428C116.503 56.6986 116.701 56.5009 116.849 56.2495C116.998 55.9982 117.068 55.7139 117.068 55.4008C117.068 55.0876 116.994 54.8074 116.849 54.552C116.705 54.2965 116.503 54.1029 116.248 53.9587C115.992 53.8145 115.708 53.7444 115.391 53.7444C115.074 53.7444 114.789 53.8145 114.53 53.9587C114.27 54.1029 114.072 54.3006 113.924 54.552C113.776 54.8033 113.702 55.0876 113.702 55.4008C113.702 55.7139 113.776 55.9941 113.924 56.2495C114.072 56.5009 114.274 56.6986 114.53 56.8428C114.785 56.987 115.074 57.0571 115.391 57.0571C115.708 57.0571 115.992 56.987 116.248 56.8428Z" fill="#F7F6F2"/>
<path d="M119.067 53.4024H119.484V56.7151L122.042 53.4024H122.425V57.3991H122.009V54.0905L119.451 57.3991H119.067V53.4024Z" fill="#F7F6F2"/>
<path d="M126.961 53.765H125.556V57.3991H125.14V53.765H123.735V53.3983H126.961V53.765Z" fill="#F7F6F2"/>
<path d="M131.103 57.0324V57.3991H128.277V53.4024H131.017V53.7691H128.697V55.1906H130.765V55.5491H128.697V57.0324H131.103Z" fill="#F7F6F2"/>
<path d="M135.745 53.4025V57.3991H135.329V53.7651H133.397L133.351 55.1C133.331 55.6521 133.29 56.0971 133.215 56.435C133.145 56.7728 133.038 57.0242 132.894 57.189C132.75 57.3538 132.556 57.4362 132.317 57.4362C132.214 57.4362 132.107 57.4238 131.996 57.395L132.029 57.0159C132.095 57.0324 132.157 57.0406 132.218 57.0406C132.387 57.0406 132.523 56.9747 132.626 56.8388C132.729 56.7028 132.812 56.5009 132.865 56.2207C132.919 55.9405 132.956 55.5697 132.972 55.1082L133.03 53.3942H135.745V53.4025Z" fill="#F7F6F2"/>
<path d="M140.422 55.1494C140.673 55.3637 140.797 55.6768 140.797 56.0847C140.797 56.5132 140.665 56.8428 140.402 57.0653C140.138 57.2878 139.755 57.3991 139.256 57.3991H137.67V53.4024H138.086V54.828H139.343C139.808 54.828 140.171 54.9352 140.422 55.1494ZM140.084 56.8181C140.278 56.6533 140.373 56.4143 140.373 56.093C140.373 55.479 139.998 55.1741 139.244 55.1741H138.086V57.0653H139.244C139.61 57.0612 139.891 56.9788 140.084 56.8181Z" fill="#F7F6F2"/>
<path d="M145.634 53.4025V57.3991H145.218V55.5532H142.717V57.3991H142.293V53.4025H142.717V55.1865H145.218V53.4025H145.634Z" fill="#F7F6F2"/>
<path d="M150.108 56.3319H147.879L147.401 57.3991H146.96L148.79 53.4024H149.206L151.035 57.3991H150.59L150.108 56.3319ZM149.956 55.99L148.996 53.8433L148.036 55.99H149.956Z" fill="#F7F6F2"/>
<path d="M155.02 53.4024V57.3991H154.604V56.1877H153.409C153.355 56.1877 153.281 56.1836 153.182 56.1753L152.342 57.3991H151.893L152.799 56.1012C152.506 56.0147 152.28 55.8581 152.127 55.6356C151.975 55.4131 151.893 55.1412 151.893 54.8157C151.893 54.3666 152.033 54.0163 152.317 53.7691C152.601 53.5219 152.984 53.3983 153.467 53.3983H155.02V53.4024ZM152.601 55.5614C152.795 55.7386 153.075 55.8251 153.442 55.8251H154.6V53.765H153.487C153.112 53.765 152.824 53.8515 152.622 54.0287C152.416 54.2059 152.317 54.4655 152.317 54.8033C152.313 55.1329 152.412 55.3843 152.601 55.5614Z" fill="#F7F6F2"/>
<path d="M160.335 55.5656H159.42V57.3991H159.008V53.4025H159.42V55.1948H160.335L161.691 53.4025H162.148L160.665 55.3431L162.235 57.3991H161.748L160.335 55.5656Z" fill="#F7F6F2"/>
<path d="M164.123 57.1683C163.801 56.9912 163.55 56.7481 163.369 56.4391C163.187 56.13 163.097 55.7839 163.097 55.4008C163.097 55.0176 163.187 54.6715 163.369 54.3625C163.55 54.0534 163.801 53.8103 164.123 53.6332C164.444 53.456 164.803 53.3695 165.198 53.3695C165.594 53.3695 165.952 53.456 166.269 53.6332C166.587 53.8062 166.838 54.0493 167.019 54.3625C167.201 54.6715 167.295 55.0217 167.295 55.4049C167.295 55.7881 167.205 56.1383 167.019 56.4473C166.838 56.7563 166.587 56.9994 166.269 57.1766C165.952 57.3538 165.594 57.4403 165.198 57.4403C164.803 57.4403 164.444 57.3455 164.123 57.1683ZM166.059 56.8428C166.315 56.6986 166.512 56.5009 166.661 56.2495C166.809 55.9982 166.879 55.7139 166.879 55.4008C166.879 55.0876 166.805 54.8074 166.661 54.552C166.517 54.2965 166.315 54.1029 166.059 53.9587C165.804 53.8145 165.519 53.7444 165.202 53.7444C164.885 53.7444 164.601 53.8145 164.341 53.9587C164.082 54.1029 163.884 54.3006 163.735 54.552C163.587 54.8033 163.513 55.0876 163.513 55.4008C163.513 55.7139 163.587 55.9941 163.735 56.2495C163.884 56.5009 164.086 56.6986 164.341 56.8428C164.597 56.987 164.885 57.0571 165.202 57.0571C165.519 57.0571 165.804 56.987 166.059 56.8428Z" fill="#F7F6F2"/>
<path d="M173.029 53.4025V57.3991H172.626V54.2018L171.056 56.8923H170.854L169.284 54.2183V57.3991H168.88V53.4025H169.231L170.965 56.3649L172.683 53.4025H173.029Z" fill="#F7F6F2"/>
<path d="M178.312 53.4024V57.3991H177.896V53.765H175.366V57.3991H174.95V53.4024H178.312Z" fill="#F7F6F2"/>
<path d="M182.792 56.3319H180.563L180.085 57.3991H179.644L181.473 53.4024H181.889L183.719 57.3991H183.274L182.792 56.3319ZM182.639 55.99L181.679 53.8433L180.719 55.99H182.639Z" fill="#F7F6F2"/>
<path d="M188.394 53.4024V57.3991H187.978V55.5532H185.477V57.3991H185.053V53.4024H185.477V55.1865H187.978V53.4024H188.394Z" fill="#F7F6F2"/>
<path d="M190.314 53.4024H190.731V56.7151L193.289 53.4024H193.672V57.3991H193.256V54.0905L190.698 57.3991H190.314V53.4024Z" fill="#F7F6F2"/>
<path d="M198.422 53.4024V57.3991H198.006V56.1877H196.811C196.758 56.1877 196.683 56.1836 196.585 56.1753L195.744 57.3991H195.295L196.201 56.1012C195.909 56.0147 195.682 55.8581 195.53 55.6356C195.377 55.4131 195.295 55.1412 195.295 54.8157C195.295 54.3666 195.435 54.0163 195.719 53.7691C196.004 53.5219 196.387 53.3983 196.869 53.3983H198.422V53.4024ZM196.004 55.5614C196.197 55.7386 196.477 55.8251 196.844 55.8251H198.002V53.765H196.881C196.506 53.765 196.218 53.8515 196.016 54.0287C195.81 54.2059 195.711 54.4655 195.711 54.8033C195.715 55.1329 195.81 55.3843 196.004 55.5614Z" fill="#F7F6F2"/>
<path d="M80.8429 31.1902H73.5006V57.8235H80.8429V31.1902Z" fill="#F7F6F2"/>
<path d="M80.8473 50.4771H63.0437V57.8193H80.8473V50.4771Z" fill="#F7F6F2"/>
<path d="M7.34581 31.1902H0.00354004V57.8235H7.34581V31.1902Z" fill="#F7F6F2"/>
<path d="M17.8036 50.4771H0V57.8193H17.8036V50.4771Z" fill="#F7F6F2"/>
<path d="M45.6061 19.3281V36.7114H35.2396V19.4929L27.9055 23.3948V57.8235H35.2396V43.3903H45.6061V57.8235H52.9442V23.2299L45.6061 19.3281Z" fill="#FCDB5C"/>
<path d="M80.8466 21.4459L56.2075 8.34761L48.3873 12.5049L69.7178 23.848H80.8466V21.4459Z" fill="#F7F6F2"/>
<path d="M40.6503 0L0 21.6148V23.848H11.446L48.4705 4.15733L40.6503 0Z" fill="#F7F6F2"/>
<path d="M100.13 13.2342H105.919V22.9209H108.235V13.2342H114.024V34.6141C114.024 35.6607 114.073 36.5506 114.168 37.2882H109.248C108.844 37.2882 108.573 36.975 108.437 36.3529C108.301 35.7307 108.235 34.5935 108.235 32.9454V27.6015H105.919V37.2882H100.13V13.2342Z" fill="#F7F6F2"/>
<path d="M116.628 37.284V13.23H122.417V23.2505H123.575C126.105 23.2505 127.893 23.5513 128.944 24.1528C129.994 24.7544 130.522 25.7885 130.522 27.2595V33.275C130.522 34.746 129.994 35.7801 128.944 36.3817C127.893 36.9833 126.101 37.284 123.575 37.284H116.628ZM122.421 33.275H123.579C124.35 33.275 124.737 32.7188 124.737 31.6063V28.9323C124.737 27.8198 124.35 27.2636 123.579 27.2636H122.421V33.275Z" fill="#F7F6F2"/>
<path d="M132.984 13.2342H138.773V22.9209H140.363V16.9053C140.363 15.4344 140.891 14.4002 141.942 13.7987C142.992 13.1971 144.785 12.8964 147.31 12.8964C149.836 12.8964 151.628 13.1971 152.679 13.7987C153.73 14.4002 154.257 15.4344 154.257 16.9053V33.6088C154.257 35.0797 153.73 36.1139 152.679 36.7155C151.628 37.317 149.836 37.6178 147.31 37.6178C144.785 37.6178 142.992 37.317 141.942 36.7155C140.891 36.1139 140.363 35.0797 140.363 33.6088V27.5933H138.773V37.2799H132.984V13.2342ZM147.314 16.9053C146.544 16.9053 146.157 17.4616 146.157 18.574V31.936C146.157 33.0485 146.544 33.6047 147.314 33.6047C148.085 33.6047 148.472 33.0485 148.472 31.936V18.574C148.472 17.4657 148.085 16.9053 147.314 16.9053Z" fill="#F7F6F2"/>
<path d="M156.433 13.2342H170.327V17.9107H166.272V37.2882H160.483V17.9107H156.429V13.2342H156.433Z" fill="#F7F6F2"/>
<path d="M172.643 13.2342H183.644V17.9107H178.432V22.9209H181.905V27.5973H178.432V32.6076H183.644V37.284H172.643V13.2342Z" fill="#F7F6F2"/>
<path d="M185.958 13.2342H191.747V21.9196H192.847C193.135 21.9196 193.412 21.7631 193.671 21.4499C193.931 21.1368 194.063 20.7495 194.063 20.2798V13.23H199.563V20.2468C199.563 20.9802 199.308 21.6848 198.797 22.3523C198.286 23.0197 197.622 23.5554 196.815 23.955C197.684 24.3547 198.405 24.9233 198.986 25.6608C199.567 26.3942 199.856 27.1524 199.856 27.9311V34.6141C199.856 35.6607 199.905 36.5506 200 37.2881H195.08C194.676 37.2881 194.404 36.975 194.269 36.3529C194.133 35.7307 194.067 34.5935 194.067 32.9454V28.2689C194.067 27.7786 193.98 27.379 193.807 27.0658C193.634 26.7527 193.412 26.5961 193.14 26.5961H191.751V37.2881H185.962V13.2342H185.958Z" fill="#F7F6F2"/>
</svg>
